<svg xmlns="http://www.w3.org/2000/svg" width="826" height="351.046" viewBox="0 0 826 351.046">
  <defs>
    <linearGradient id="linear" x1="0%" y1="0%" x2="100%" y2="0%">
      <stop offset="0%"   stop-color="#889EE2"/>
      <stop offset="100%" stop-color="#3b4c81"/>
    </linearGradient>
    <style>
      .cls-1, .cls-3 {
        fill: none;
        stroke-dasharray: 4 4;
      }

      .cls-1 {
        stroke: #889EE2;
      }

      .cls-2 {
        fill: #3b4c81;
      }

      .cls-3 {
        stroke: url(#linear);
        stroke-width: 2px;
      }

      .cls-4 {
        fill: #252d43;
      }
    </style>
  </defs>
  <g id="Gruppe_10354" data-name="Gruppe 10354" transform="translate(-269 -398)">
    <path id="Pfad_1086" data-name="Pfad 1086" class="cls-1" d="M0,0H158V37H0Z" transform="translate(378.5 409.5)"/>
    <path id="Pfad_1088" data-name="Pfad 1088" class="cls-1" d="M0,0H156V37H0Z" transform="translate(556.5 448.5)"/>
    <path id="Pfad_1094" data-name="Pfad 1094" class="cls-1" d="M0,0H274V69H0Z" transform="translate(820.5 516.5)"/>
    <path id="Pfad_1092" data-name="Pfad 1092" class="cls-1" d="M0,0H228V37H0Z" transform="translate(745.5 398.5)"/>
    <path id="Pfad_1090" data-name="Pfad 1090" class="cls-1" d="M0,0H167V37H0Z" transform="translate(269.5 516.5)"/>
    <path id="Pfad_1089" data-name="Pfad 1089" class="cls-2" d="M15.8-12.441q-.269.028-.775.125a2.174,2.174,0,0,0-.849.339,1.31,1.31,0,0,0-.5.835,8.414,8.414,0,0,0-.144,1.809v4.9A4.452,4.452,0,0,1,12.07-.956,5.582,5.582,0,0,1,8.192.362,6.659,6.659,0,0,1,3.841-.909,4.341,4.341,0,0,1,2.3-4.453v-6.735a1.156,1.156,0,0,0-.125-.557,1.1,1.1,0,0,0-.478-.417,2.475,2.475,0,0,0-.594-.195q-.353-.074-.575-.1v-.705h6.9v.705a5.91,5.91,0,0,0-.6.07,4.334,4.334,0,0,0-.622.153.724.724,0,0,0-.473.371,1.372,1.372,0,0,0-.121.584v6.643a3.982,3.982,0,0,0,.863,2.848A3.33,3.33,0,0,0,8.98-.9a3.3,3.3,0,0,0,2.533-.983,4.1,4.1,0,0,0,.918-2.895V-9.24a7.2,7.2,0,0,0-.162-1.777,1.562,1.562,0,0,0-.5-.849,2.318,2.318,0,0,0-.84-.371,8.5,8.5,0,0,0-.84-.2v-.724H15.8ZM20.67.315A5.937,5.937,0,0,1,18.912.051,5.756,5.756,0,0,1,17.581-.51L17.3.121h-.724l-.121-3.46h.677A4.6,4.6,0,0,0,17.6-2.4a5.191,5.191,0,0,0,.742.942,4.2,4.2,0,0,0,1,.705,2.6,2.6,0,0,0,1.2.288A2,2,0,0,0,21.8-.793a1.221,1.221,0,0,0,.413-1.016.975.975,0,0,0-.186-.612,1.584,1.584,0,0,0-.51-.417,4.712,4.712,0,0,0-.793-.315q-.431-.13-1.062-.315a10.215,10.215,0,0,1-1.081-.376,3.7,3.7,0,0,1-.932-.6,2.735,2.735,0,0,1-.668-.872,2.732,2.732,0,0,1-.25-1.215,2.506,2.506,0,0,1,1.1-2.115,4.752,4.752,0,0,1,2.881-.807,6.607,6.607,0,0,1,1.554.172,7.826,7.826,0,0,1,1.192.376l.195-.547h.705L24.5-6.29h-.659a3.833,3.833,0,0,0-1.113-1.665,2.514,2.514,0,0,0-1.7-.7,1.875,1.875,0,0,0-1.123.3.963.963,0,0,0-.408.826,1.07,1.07,0,0,0,.6,1.021,8.011,8.011,0,0,0,1.675.594A5.463,5.463,0,0,1,24.2-4.755a2.489,2.489,0,0,1,.77,1.879A2.71,2.71,0,0,1,23.782-.52,5.314,5.314,0,0,1,20.67.315ZM36.089-2.217a5.642,5.642,0,0,1-.784,1,4.759,4.759,0,0,1-1.044.8A5.723,5.723,0,0,1,33,.116,5.35,5.35,0,0,1,31.543.3a6.507,6.507,0,0,1-2.37-.39,4.65,4.65,0,0,1-1.647-1.048A4.2,4.2,0,0,1,26.556-2.7a5.733,5.733,0,0,1-.32-1.944,4.828,4.828,0,0,1,.348-1.814A4.865,4.865,0,0,1,27.572-8a4.73,4.73,0,0,1,1.591-1.067,5.438,5.438,0,0,1,2.148-.408,6.116,6.116,0,0,1,2.134.315,3.777,3.777,0,0,1,1.382.872,3.162,3.162,0,0,1,.77,1.248,4.708,4.708,0,0,1,.241,1.508v.6H29.567A4.829,4.829,0,0,0,30.3-2.032a2.7,2.7,0,0,0,2.329.993A2.705,2.705,0,0,0,34.2-1.517a4.473,4.473,0,0,0,1.188-1.211ZM32.545-5.743q0-.557-.056-1.141a3.8,3.8,0,0,0-.195-.956,1.468,1.468,0,0,0-.431-.659,1.06,1.06,0,0,0-.691-.223A1.286,1.286,0,0,0,30.031-8a4.919,4.919,0,0,0-.464,2.292ZM46.22-7.505a1.9,1.9,0,0,1-.436,1.239,1.413,1.413,0,0,1-1.15.533,1.886,1.886,0,0,1-1.146-.343,1.174,1.174,0,0,1-.469-1.011,2.14,2.14,0,0,1,.046-.506q.046-.181.083-.339a1.955,1.955,0,0,0-.9.3,2.96,2.96,0,0,0-.835.742V-1.8a1.246,1.246,0,0,0,.1.538.721.721,0,0,0,.343.334,2.4,2.4,0,0,0,.663.172q.459.07.663.079V0H36.979V-.677q.232-.019.469-.051a2.266,2.266,0,0,0,.4-.088.682.682,0,0,0,.408-.315,1.2,1.2,0,0,0,.111-.557v-5.4a1.145,1.145,0,0,0-.158-.6,1.363,1.363,0,0,0-.38-.422,1.532,1.532,0,0,0-.422-.186,2.974,2.974,0,0,0-.561-.1v-.677l4.425-.241.139.139V-7.83h.037A5.468,5.468,0,0,1,42.81-8.994a2.918,2.918,0,0,1,1.5-.422,1.857,1.857,0,0,1,1.387.533A1.882,1.882,0,0,1,46.22-7.505ZM62.752-4.537a4.683,4.683,0,0,1-1.378,3.46A4.742,4.742,0,0,1,57.881.3,7.38,7.38,0,0,1,56.476.181a5.437,5.437,0,0,1-1-.283A3.935,3.935,0,0,1,54.8-.45q-.255-.172-.4-.283L53.066.473,52.519.26q.046-.677.079-1.47t.032-2.138v-8.684a1.5,1.5,0,0,0-.144-.654,1.094,1.094,0,0,0-.385-.459,1.8,1.8,0,0,0-.515-.195,3.6,3.6,0,0,0-.626-.1v-.677l4.583-.241.139.148v6.03h.056a4.64,4.64,0,0,1,1.392-.965,3.6,3.6,0,0,1,1.429-.306,3.81,3.81,0,0,1,3.071,1.327A5.379,5.379,0,0,1,62.752-4.537Zm-3.331.111a8.433,8.433,0,0,0-.107-1.359,4.018,4.018,0,0,0-.357-1.155,2.2,2.2,0,0,0-.659-.8,1.655,1.655,0,0,0-1.011-.3,2.089,2.089,0,0,0-.937.186,2.054,2.054,0,0,0-.668.547v5.4a3.147,3.147,0,0,0,.209.487,2.011,2.011,0,0,0,.311.469,1.658,1.658,0,0,0,.473.366,1.608,1.608,0,0,0,.705.125A1.66,1.66,0,0,0,58.874-1.5,6.362,6.362,0,0,0,59.421-4.425Zm14.5,2.208a5.642,5.642,0,0,1-.784,1,4.759,4.759,0,0,1-1.044.8,5.723,5.723,0,0,1-1.257.533A5.35,5.35,0,0,1,69.376.3a6.507,6.507,0,0,1-2.37-.39,4.65,4.65,0,0,1-1.647-1.048A4.2,4.2,0,0,1,64.389-2.7a5.733,5.733,0,0,1-.32-1.944,4.828,4.828,0,0,1,.348-1.814A4.865,4.865,0,0,1,65.405-8,4.73,4.73,0,0,1,67-9.064a5.438,5.438,0,0,1,2.148-.408,6.116,6.116,0,0,1,2.134.315,3.777,3.777,0,0,1,1.382.872,3.162,3.162,0,0,1,.77,1.248,4.708,4.708,0,0,1,.241,1.508v.6H67.4a4.828,4.828,0,0,0,.733,2.895,2.7,2.7,0,0,0,2.329.993,2.705,2.705,0,0,0,1.568-.478,4.473,4.473,0,0,0,1.188-1.211ZM70.378-5.743q0-.557-.056-1.141a3.8,3.8,0,0,0-.195-.956A1.468,1.468,0,0,0,69.7-8.5,1.06,1.06,0,0,0,69-8.721,1.286,1.286,0,0,0,67.864-8,4.919,4.919,0,0,0,67.4-5.706ZM86.873,0H81.288V-.677l.436-.046A1.067,1.067,0,0,0,82.1-.816a.569.569,0,0,0,.274-.3,1.608,1.608,0,0,0,.079-.575V-6.03a2.36,2.36,0,0,0-.357-1.429,1.2,1.2,0,0,0-1.016-.473,2.09,2.09,0,0,0-.691.111,2.575,2.575,0,0,0-.626.325,2.135,2.135,0,0,0-.431.38q-.162.195-.274.343v4.982a1.438,1.438,0,0,0,.083.543.687.687,0,0,0,.315.329,1.547,1.547,0,0,0,.366.148,3.034,3.034,0,0,0,.441.093V0H74.618V-.677q.241-.019.469-.046a1.8,1.8,0,0,0,.4-.093.7.7,0,0,0,.4-.32A1.218,1.218,0,0,0,76-1.688V-12.033a1.643,1.643,0,0,0-.139-.631,1.079,1.079,0,0,0-.39-.5,1.559,1.559,0,0,0-.538-.19,5.023,5.023,0,0,0-.631-.088v-.677l4.611-.241.139.148V-7.83h.037l.635-.571a5.214,5.214,0,0,1,.691-.515,3.339,3.339,0,0,1,.9-.38A4.324,4.324,0,0,1,82.5-9.454a2.844,2.844,0,0,1,2.259.863,3.324,3.324,0,0,1,.756,2.273v4.546a1.234,1.234,0,0,0,.1.547A.721.721,0,0,0,86-.9a2.6,2.6,0,0,0,.371.13,3.671,3.671,0,0,0,.5.093ZM98.331-.195a7.008,7.008,0,0,1-.965.325,4.555,4.555,0,0,1-1.178.148A3.235,3.235,0,0,1,94.508-.06a1.7,1.7,0,0,1-.733-.969H93.72a6.084,6.084,0,0,1-.608.538,3.488,3.488,0,0,1-.626.38,4.454,4.454,0,0,1-.84.3,5.056,5.056,0,0,1-1.127.1,2.771,2.771,0,0,1-1.837-.635,2.085,2.085,0,0,1-.761-1.684,2.791,2.791,0,0,1,.167-1.025,2.324,2.324,0,0,1,.473-.747,2.459,2.459,0,0,1,.645-.492,7.179,7.179,0,0,1,.8-.362q.835-.306,2-.635a11.32,11.32,0,0,0,1.707-.589v-.891q0-.232-.037-.612a1.98,1.98,0,0,0-.158-.64,1.224,1.224,0,0,0-.408-.5,1.211,1.211,0,0,0-.733-.2,1.753,1.753,0,0,0-.682.116,2.281,2.281,0,0,0-.441.237,3.632,3.632,0,0,0,.158.566,2.264,2.264,0,0,1,.13.733,1.234,1.234,0,0,1-.083.394.879.879,0,0,1-.241.376,1.6,1.6,0,0,1-.478.288,2.4,2.4,0,0,1-.812.1,1.659,1.659,0,0,1-1.178-.376,1.283,1.283,0,0,1-.4-.979,1.287,1.287,0,0,1,.413-.932,3.377,3.377,0,0,1,1.007-.682,5.775,5.775,0,0,1,1.345-.431,7.18,7.18,0,0,1,1.41-.153,11.793,11.793,0,0,1,1.651.107,3.9,3.9,0,0,1,1.354.441,2.352,2.352,0,0,1,.914.942,3.335,3.335,0,0,1,.339,1.61q0,1.048-.042,2.486t-.042,1.893a1.443,1.443,0,0,0,.125.659.8.8,0,0,0,.385.362,1.37,1.37,0,0,0,.5.088q.339.014.617.014ZM93.72-5.028q-.52.176-1.03.4a4.11,4.11,0,0,0-.835.478,1.8,1.8,0,0,0-.538.663,2.166,2.166,0,0,0-.195.951,1.425,1.425,0,0,0,.329,1.048,1.111,1.111,0,0,0,.812.325,1.543,1.543,0,0,0,.84-.209,2.417,2.417,0,0,0,.58-.515Zm15.9-3.5a2.112,2.112,0,0,0-.812.315,1.864,1.864,0,0,0-.654.779q-.649,1.354-1.276,2.732T105.65-2.032q-.186.39-.422,1T104.834.083h-1.707q-1.067-2.477-1.823-4.11T99.7-7.533A1.5,1.5,0,0,0,99.1-8.22a2.148,2.148,0,0,0-.84-.306V-9.2h5.715v.677a2.9,2.9,0,0,0-.742.139q-.427.13-.427.334a.589.589,0,0,0,.037.167q.037.111.093.25.3.705.9,2.032t1.266,2.792q.464-1.011.886-1.981t1.044-2.472a1.523,1.523,0,0,0,.1-.362q.014-.139.014-.186a.364.364,0,0,0-.162-.292,1.693,1.693,0,0,0-.385-.218,2.811,2.811,0,0,0-.445-.139q-.213-.046-.353-.065V-9.2h3.832ZM115.679,0h-5.863V-.677q.241-.019.473-.046a1.648,1.648,0,0,0,.4-.093.769.769,0,0,0,.417-.32,1.1,1.1,0,0,0,.121-.552v-5.4a1.082,1.082,0,0,0-.148-.571,1.228,1.228,0,0,0-.371-.394,1.971,1.971,0,0,0-.506-.213,3.3,3.3,0,0,0-.617-.13v-.677l4.546-.241.139.139v7.366a1.038,1.038,0,0,0,.139.552.843.843,0,0,0,.4.339,3.132,3.132,0,0,0,.408.148,2.8,2.8,0,0,0,.464.093Zm-1.354-12.654a1.569,1.569,0,0,1-.543,1.2,1.841,1.841,0,0,1-1.285.5,1.852,1.852,0,0,1-1.294-.5,1.569,1.569,0,0,1-.543-1.2,1.583,1.583,0,0,1,.543-1.206,1.843,1.843,0,0,1,1.294-.5,1.826,1.826,0,0,1,1.29.5A1.589,1.589,0,0,1,114.325-12.654ZM126-8.108a4.255,4.255,0,0,1,1.048,1.531,5.078,5.078,0,0,1,.362,1.93,5.291,5.291,0,0,1-.357,1.944,4.251,4.251,0,0,1-1.044,1.563,4.994,4.994,0,0,1-1.749,1.067A6.749,6.749,0,0,1,121.941.3a6.409,6.409,0,0,1-2.083-.325A4.9,4.9,0,0,1,118.175-1a4.417,4.417,0,0,1-1.113-1.535,4.962,4.962,0,0,1-.408-2.046,5.165,5.165,0,0,1,.357-1.981,4.447,4.447,0,0,1,1.072-1.545,4.724,4.724,0,0,1,1.693-1.007,6.694,6.694,0,0,1,2.25-.357,6.713,6.713,0,0,1,2.287.357A4.948,4.948,0,0,1,126-8.108ZM123.63-1.679a5.4,5.4,0,0,0,.3-1.262,13.425,13.425,0,0,0,.1-1.726,13.6,13.6,0,0,0-.093-1.484,5.48,5.48,0,0,0-.278-1.317,2.2,2.2,0,0,0-.617-.918,1.489,1.489,0,0,0-1-.334,1.5,1.5,0,0,0-1.053.362,2.358,2.358,0,0,0-.608.937,5.141,5.141,0,0,0-.269,1.239,14.232,14.232,0,0,0-.074,1.48q0,1.011.065,1.675A5.236,5.236,0,0,0,120.42-1.7a2.114,2.114,0,0,0,.612.909,1.522,1.522,0,0,0,1.011.334A1.508,1.508,0,0,0,123-.765,2.061,2.061,0,0,0,123.63-1.679Zm14.222-5.826a1.9,1.9,0,0,1-.436,1.239,1.413,1.413,0,0,1-1.15.533,1.886,1.886,0,0,1-1.146-.343,1.174,1.174,0,0,1-.469-1.011,2.139,2.139,0,0,1,.046-.506q.046-.181.083-.339a1.955,1.955,0,0,0-.9.3,2.96,2.96,0,0,0-.835.742V-1.8a1.246,1.246,0,0,0,.1.538.721.721,0,0,0,.343.334,2.4,2.4,0,0,0,.663.172q.459.07.663.079V0h-6.207V-.677q.232-.019.469-.051a2.266,2.266,0,0,0,.4-.088.682.682,0,0,0,.408-.315A1.2,1.2,0,0,0,130-1.688v-5.4a1.145,1.145,0,0,0-.158-.6,1.363,1.363,0,0,0-.38-.422,1.532,1.532,0,0,0-.422-.186,2.974,2.974,0,0,0-.561-.1v-.677l4.425-.241.139.139V-7.83h.037a5.468,5.468,0,0,1,1.359-1.164,2.918,2.918,0,0,1,1.5-.422,1.857,1.857,0,0,1,1.387.533A1.882,1.882,0,0,1,137.852-7.505Z" transform="translate(565 473)"/>
    <path id="Pfad_1095" data-name="Pfad 1095" class="cls-2" d="M14.927,0H7.756V-.724A8.98,8.98,0,0,0,8.934-.9q.677-.144.677-.357A1.137,1.137,0,0,0,9.6-1.429a1.16,1.16,0,0,0-.079-.25L8.4-4.407H3.85q-.158.38-.348.891t-.329.909a4.745,4.745,0,0,0-.209.751,2.75,2.75,0,0,0-.032.325q0,.3.45.506a4.9,4.9,0,0,0,1.5.3V0H-.52V-.724a4.988,4.988,0,0,0,.691-.1,1.862,1.862,0,0,0,.608-.218,2.359,2.359,0,0,0,.645-.547,2.9,2.9,0,0,0,.441-.77L4.022-7.58Q5.1-10.2,6.411-13.35H8.266q1.818,4.472,2.848,7.069t1.753,4.3a2.141,2.141,0,0,0,.306.506,1.982,1.982,0,0,0,.529.431,2.105,2.105,0,0,0,.6.223,4.335,4.335,0,0,0,.622.093ZM8.016-5.325,6.1-10.094,4.221-5.325Zm18,.789a4.683,4.683,0,0,1-1.378,3.46A4.742,4.742,0,0,1,21.143.3,7.38,7.38,0,0,1,19.738.181a5.437,5.437,0,0,1-1-.283,3.935,3.935,0,0,1-.682-.348q-.255-.172-.4-.283L16.328.473,15.781.26q.046-.677.079-1.47t.032-2.138v-8.684a1.5,1.5,0,0,0-.144-.654,1.094,1.094,0,0,0-.385-.459,1.8,1.8,0,0,0-.515-.195,3.6,3.6,0,0,0-.626-.1v-.677l4.583-.241.139.148v6.03H19a4.64,4.64,0,0,1,1.392-.965,3.6,3.6,0,0,1,1.429-.306,3.81,3.81,0,0,1,3.071,1.327A5.379,5.379,0,0,1,26.014-4.537Zm-3.331.111a8.433,8.433,0,0,0-.107-1.359,4.018,4.018,0,0,0-.357-1.155,2.2,2.2,0,0,0-.659-.8,1.655,1.655,0,0,0-1.011-.3,2.089,2.089,0,0,0-.937.186,2.054,2.054,0,0,0-.668.547v5.4a3.147,3.147,0,0,0,.209.487,2.011,2.011,0,0,0,.311.469,1.658,1.658,0,0,0,.473.366,1.608,1.608,0,0,0,.705.125A1.66,1.66,0,0,0,22.136-1.5,6.362,6.362,0,0,0,22.683-4.425ZM33.074,0H27.21V-.677q.241-.019.473-.046a1.648,1.648,0,0,0,.4-.093.769.769,0,0,0,.417-.32,1.1,1.1,0,0,0,.121-.552v-5.4a1.082,1.082,0,0,0-.148-.571,1.228,1.228,0,0,0-.371-.394,1.971,1.971,0,0,0-.506-.213,3.3,3.3,0,0,0-.617-.13v-.677l4.546-.241.139.139v7.366a1.038,1.038,0,0,0,.139.552.843.843,0,0,0,.4.339,3.132,3.132,0,0,0,.408.148,2.8,2.8,0,0,0,.464.093ZM31.719-12.654a1.569,1.569,0,0,1-.543,1.2,1.841,1.841,0,0,1-1.285.5,1.852,1.852,0,0,1-1.294-.5,1.569,1.569,0,0,1-.543-1.2A1.583,1.583,0,0,1,28.6-13.86a1.843,1.843,0,0,1,1.294-.5,1.826,1.826,0,0,1,1.29.5A1.589,1.589,0,0,1,31.719-12.654ZM39.577,0H33.76V-.677Q34-.7,34.229-.724a1.8,1.8,0,0,0,.4-.093.7.7,0,0,0,.4-.32,1.218,1.218,0,0,0,.107-.552V-11.968A1.5,1.5,0,0,0,35-12.622a1.094,1.094,0,0,0-.385-.459,2.236,2.236,0,0,0-.561-.232,3.074,3.074,0,0,0-.663-.13v-.677l4.667-.241.139.148v12.4a1.125,1.125,0,0,0,.121.557.807.807,0,0,0,.39.334,3.633,3.633,0,0,0,.39.148,2.387,2.387,0,0,0,.482.093Zm6.754,0H40.468V-.677q.241-.019.473-.046a1.648,1.648,0,0,0,.4-.093.769.769,0,0,0,.417-.32,1.1,1.1,0,0,0,.121-.552v-5.4a1.082,1.082,0,0,0-.148-.571,1.228,1.228,0,0,0-.371-.394,1.971,1.971,0,0,0-.506-.213,3.3,3.3,0,0,0-.617-.13v-.677l4.546-.241.139.139v7.366a1.038,1.038,0,0,0,.139.552.843.843,0,0,0,.4.339,3.132,3.132,0,0,0,.408.148,2.8,2.8,0,0,0,.464.093ZM44.977-12.654a1.569,1.569,0,0,1-.543,1.2,1.841,1.841,0,0,1-1.285.5,1.852,1.852,0,0,1-1.294-.5,1.569,1.569,0,0,1-.543-1.2,1.583,1.583,0,0,1,.543-1.206,1.843,1.843,0,0,1,1.294-.5,1.826,1.826,0,0,1,1.29.5A1.589,1.589,0,0,1,44.977-12.654ZM54.087-.427a11.957,11.957,0,0,1-1.271.469A5.664,5.664,0,0,1,51.165.25a2.912,2.912,0,0,1-2.148-.705,2.735,2.735,0,0,1-.7-2.013v-5.7h-1.67v-1h1.707v-2.811h3.015v2.811h2.6v1H51.387V-3.08a2.913,2.913,0,0,0,.3,1.54,1.2,1.2,0,0,0,1.081.455q.25,0,.7-.037a4.18,4.18,0,0,0,.622-.083Zm11.133-8.1a2.112,2.112,0,0,0-.812.315,1.864,1.864,0,0,0-.654.779q-.8,1.688-1.642,3.595T60.238.288a12.087,12.087,0,0,1-1.113,1.985,6.451,6.451,0,0,1-1.011,1.141,3.16,3.16,0,0,1-.881.538,2.447,2.447,0,0,1-.881.167,2.039,2.039,0,0,1-1.424-.492,1.465,1.465,0,0,1-.543-1.1,1.84,1.84,0,0,1,.06-.482,1.293,1.293,0,0,1,.255-.464,1.147,1.147,0,0,1,.459-.348,1.649,1.649,0,0,1,.7-.144,1.611,1.611,0,0,1,.993.362,5.833,5.833,0,0,1,.983,1,8.488,8.488,0,0,0,.756-.914A4.479,4.479,0,0,0,59.254.288Q58.15-2.032,57.3-3.734t-1.911-3.8a1.754,1.754,0,0,0-.622-.691,2.01,2.01,0,0,0-.826-.3V-9.2h5.678v.677a2.739,2.739,0,0,0-.728.139q-.413.13-.413.334a.542.542,0,0,0,.028.162,2.667,2.667,0,0,0,.1.255q.315.649.9,1.8t1.35,2.7q.575-1.317.979-2.268t.784-1.869a1.474,1.474,0,0,0,.107-.366q.014-.135.014-.181a.364.364,0,0,0-.162-.292,1.693,1.693,0,0,0-.385-.218,2.811,2.811,0,0,0-.445-.139q-.213-.046-.353-.065V-9.2H65.22Zm11.921,8.1A11.957,11.957,0,0,1,75.87.042,5.664,5.664,0,0,1,74.219.25a2.912,2.912,0,0,1-2.148-.705,2.735,2.735,0,0,1-.7-2.013v-5.7H69.7v-1h1.707v-2.811h3.015v2.811h2.6v1H74.441V-3.08a2.913,2.913,0,0,0,.3,1.54,1.2,1.2,0,0,0,1.081.455q.25,0,.7-.037a4.18,4.18,0,0,0,.622-.083ZM87.263-8.108a4.255,4.255,0,0,1,1.048,1.531,5.078,5.078,0,0,1,.362,1.93A5.291,5.291,0,0,1,88.316-2.7a4.251,4.251,0,0,1-1.044,1.563A4.994,4.994,0,0,1,85.523-.074,6.749,6.749,0,0,1,83.2.3a6.409,6.409,0,0,1-2.083-.325A4.9,4.9,0,0,1,79.433-1a4.417,4.417,0,0,1-1.113-1.535,4.962,4.962,0,0,1-.408-2.046,5.165,5.165,0,0,1,.357-1.981A4.447,4.447,0,0,1,79.34-8.108a4.724,4.724,0,0,1,1.693-1.007,6.694,6.694,0,0,1,2.25-.357,6.713,6.713,0,0,1,2.287.357A4.948,4.948,0,0,1,87.263-8.108ZM84.888-1.679a5.4,5.4,0,0,0,.3-1.262,13.425,13.425,0,0,0,.1-1.726,13.6,13.6,0,0,0-.093-1.484,5.48,5.48,0,0,0-.278-1.317,2.2,2.2,0,0,0-.617-.918,1.489,1.489,0,0,0-1-.334,1.5,1.5,0,0,0-1.053.362,2.358,2.358,0,0,0-.608.937,5.141,5.141,0,0,0-.269,1.239A14.232,14.232,0,0,0,81.3-4.7q0,1.011.065,1.675A5.236,5.236,0,0,0,81.678-1.7a2.114,2.114,0,0,0,.612.909A1.522,1.522,0,0,0,83.3-.455a1.508,1.508,0,0,0,.956-.311A2.061,2.061,0,0,0,84.888-1.679Zm21.106-2.839a4.748,4.748,0,0,1-1.308,3.358,4.336,4.336,0,0,1-3.312,1.4A4.789,4.789,0,0,1,99.926.06a3.343,3.343,0,0,1-.918-.441h-.074V2.227a1.084,1.084,0,0,0,.144.566.846.846,0,0,0,.4.353,3.743,3.743,0,0,0,.71.186,6.687,6.687,0,0,0,.765.1v.687h-6.7V3.433q.232-.019.584-.07a3.6,3.6,0,0,0,.529-.107.637.637,0,0,0,.4-.348,1.4,1.4,0,0,0,.107-.561V-7.144a1.5,1.5,0,0,0-.144-.538,1.111,1.111,0,0,0-.366-.408,1.672,1.672,0,0,0-.492-.2,3.861,3.861,0,0,0-.6-.107v-.677l4.518-.241.139.121v1.03l.074.019a4.594,4.594,0,0,1,1.359-.965,3.521,3.521,0,0,1,1.48-.343,3.712,3.712,0,0,1,3.034,1.359A5.466,5.466,0,0,1,105.994-4.518Zm-3.331.037a8.391,8.391,0,0,0-.1-1.331,3.742,3.742,0,0,0-.362-1.136,2.139,2.139,0,0,0-.663-.8,1.678,1.678,0,0,0-1.007-.3,1.925,1.925,0,0,0-.965.209,2.247,2.247,0,0,0-.631.543v5.26a2.714,2.714,0,0,0,.213.478,2.453,2.453,0,0,0,.315.469,1.471,1.471,0,0,0,.529.371,1.709,1.709,0,0,0,.649.121,1.654,1.654,0,0,0,1.47-.988A6.071,6.071,0,0,0,102.663-4.481ZM117.794-.195a7.008,7.008,0,0,1-.965.325,4.555,4.555,0,0,1-1.178.148,3.235,3.235,0,0,1-1.679-.339,1.7,1.7,0,0,1-.733-.969h-.056a6.084,6.084,0,0,1-.608.538,3.488,3.488,0,0,1-.626.38,4.454,4.454,0,0,1-.84.3,5.056,5.056,0,0,1-1.127.1,2.771,2.771,0,0,1-1.837-.635,2.085,2.085,0,0,1-.761-1.684,2.791,2.791,0,0,1,.167-1.025,2.324,2.324,0,0,1,.473-.747,2.459,2.459,0,0,1,.645-.492,7.179,7.179,0,0,1,.8-.362q.835-.306,2-.635a11.32,11.32,0,0,0,1.707-.589v-.891q0-.232-.037-.612a1.98,1.98,0,0,0-.158-.64,1.224,1.224,0,0,0-.408-.5,1.211,1.211,0,0,0-.733-.2,1.753,1.753,0,0,0-.682.116,2.281,2.281,0,0,0-.441.237,3.632,3.632,0,0,0,.158.566,2.264,2.264,0,0,1,.13.733,1.234,1.234,0,0,1-.083.394.879.879,0,0,1-.241.376,1.6,1.6,0,0,1-.478.288,2.4,2.4,0,0,1-.812.1,1.659,1.659,0,0,1-1.178-.376,1.283,1.283,0,0,1-.4-.979,1.287,1.287,0,0,1,.413-.932,3.377,3.377,0,0,1,1.007-.682,5.775,5.775,0,0,1,1.345-.431A7.18,7.18,0,0,1,112-9.472a11.793,11.793,0,0,1,1.651.107A3.9,3.9,0,0,1,115-8.925a2.352,2.352,0,0,1,.914.942,3.335,3.335,0,0,1,.339,1.61q0,1.048-.042,2.486t-.042,1.893a1.443,1.443,0,0,0,.125.659.8.8,0,0,0,.385.362,1.37,1.37,0,0,0,.5.088q.339.014.617.014Zm-4.611-4.833q-.52.176-1.03.4a4.11,4.11,0,0,0-.835.478,1.8,1.8,0,0,0-.538.663,2.166,2.166,0,0,0-.195.951,1.425,1.425,0,0,0,.329,1.048,1.111,1.111,0,0,0,.812.325,1.543,1.543,0,0,0,.84-.209,2.417,2.417,0,0,0,.58-.515Zm15.809-3.5a2.112,2.112,0,0,0-.812.315,1.864,1.864,0,0,0-.654.779q-.8,1.688-1.642,3.595T124.01.288A12.086,12.086,0,0,1,122.9,2.273a6.452,6.452,0,0,1-1.011,1.141,3.16,3.16,0,0,1-.881.538,2.447,2.447,0,0,1-.881.167,2.039,2.039,0,0,1-1.424-.492,1.465,1.465,0,0,1-.543-1.1,1.841,1.841,0,0,1,.06-.482,1.293,1.293,0,0,1,.255-.464,1.147,1.147,0,0,1,.459-.348,1.649,1.649,0,0,1,.7-.144,1.611,1.611,0,0,1,.993.362,5.834,5.834,0,0,1,.983,1,8.488,8.488,0,0,0,.756-.914,4.479,4.479,0,0,0,.663-1.248q-1.1-2.319-1.958-4.022t-1.911-3.8a1.754,1.754,0,0,0-.622-.691,2.01,2.01,0,0,0-.826-.3V-9.2h5.678v.677a2.739,2.739,0,0,0-.728.139q-.413.13-.413.334a.542.542,0,0,0,.028.162,2.668,2.668,0,0,0,.1.255q.315.649.9,1.8t1.35,2.7q.575-1.317.979-2.268t.784-1.869a1.474,1.474,0,0,0,.107-.366q.014-.135.014-.181a.364.364,0,0,0-.162-.292,1.693,1.693,0,0,0-.385-.218,2.811,2.811,0,0,0-.445-.139q-.213-.046-.353-.065V-9.2h3.832Zm14.491.417a4.255,4.255,0,0,1,1.048,1.531,5.078,5.078,0,0,1,.362,1.93,5.291,5.291,0,0,1-.357,1.944,4.251,4.251,0,0,1-1.044,1.563,4.994,4.994,0,0,1-1.749,1.067A6.749,6.749,0,0,1,139.42.3a6.409,6.409,0,0,1-2.083-.325A4.9,4.9,0,0,1,135.653-1a4.417,4.417,0,0,1-1.113-1.535,4.962,4.962,0,0,1-.408-2.046,5.165,5.165,0,0,1,.357-1.981,4.447,4.447,0,0,1,1.072-1.545,4.724,4.724,0,0,1,1.693-1.007,6.694,6.694,0,0,1,2.25-.357,6.713,6.713,0,0,1,2.287.357A4.948,4.948,0,0,1,143.483-8.108Zm-2.375,6.429a5.4,5.4,0,0,0,.3-1.262,13.425,13.425,0,0,0,.1-1.726,13.606,13.606,0,0,0-.093-1.484,5.479,5.479,0,0,0-.278-1.317,2.2,2.2,0,0,0-.617-.918,1.489,1.489,0,0,0-1-.334,1.5,1.5,0,0,0-1.053.362,2.358,2.358,0,0,0-.608.937,5.142,5.142,0,0,0-.269,1.239,14.23,14.23,0,0,0-.074,1.48q0,1.011.065,1.675A5.235,5.235,0,0,0,137.9-1.7a2.114,2.114,0,0,0,.612.909,1.522,1.522,0,0,0,1.011.334,1.508,1.508,0,0,0,.956-.311A2.061,2.061,0,0,0,141.108-1.679Zm13.758-11.114a1.993,1.993,0,0,1-.074.51,1.184,1.184,0,0,1-.241.473,1.371,1.371,0,0,1-.436.353,1.68,1.68,0,0,1-.724.121,1.405,1.405,0,0,1-1.15-.51,6.777,6.777,0,0,1-.891-1.7,1.28,1.28,0,0,0-.6.816,10.633,10.633,0,0,0-.232,2.83v.733h2.561v1h-2.542v6.392a.85.85,0,0,0,.167.561.965.965,0,0,0,.436.292,4.744,4.744,0,0,0,.584.144q.362.07.649.1V0h-6.262V-.677q.241-.019.469-.046a1.8,1.8,0,0,0,.4-.093.7.7,0,0,0,.4-.32,1.218,1.218,0,0,0,.107-.552V-8.164h-1.883v-1h1.883a6.494,6.494,0,0,1,.288-1.925,4.837,4.837,0,0,1,.891-1.665,4.242,4.242,0,0,1,1.54-1.169,5.269,5.269,0,0,1,2.245-.445,3.107,3.107,0,0,1,1.781.436A1.33,1.33,0,0,1,154.867-12.793Zm7.468,0a1.993,1.993,0,0,1-.074.51,1.184,1.184,0,0,1-.241.473,1.371,1.371,0,0,1-.436.353,1.68,1.68,0,0,1-.724.121,1.405,1.405,0,0,1-1.15-.51,6.777,6.777,0,0,1-.891-1.7,1.28,1.28,0,0,0-.6.816,10.633,10.633,0,0,0-.232,2.83v.733h2.561v1H158v6.392a.85.85,0,0,0,.167.561.965.965,0,0,0,.436.292,4.744,4.744,0,0,0,.584.144q.362.07.649.1V0h-6.262V-.677q.241-.019.469-.046a1.8,1.8,0,0,0,.4-.093.7.7,0,0,0,.4-.32,1.218,1.218,0,0,0,.107-.552V-8.164h-1.883v-1h1.883a6.494,6.494,0,0,1,.288-1.925,4.837,4.837,0,0,1,.891-1.665,4.242,4.242,0,0,1,1.54-1.169,5.269,5.269,0,0,1,2.245-.445,3.107,3.107,0,0,1,1.781.436A1.33,1.33,0,0,1,162.335-12.793Zm15.512,12.6-4.574.269-.139-.13V-.909l-.065-.019a3.951,3.951,0,0,1-1.229.858A3.624,3.624,0,0,1,170.276.3a3.921,3.921,0,0,1-3.089-1.392,5.273,5.273,0,0,1-1.215-3.6,4.652,4.652,0,0,1,1.359-3.358,4.414,4.414,0,0,1,3.289-1.4,5.724,5.724,0,0,1,1.429.172,4.267,4.267,0,0,1,1.067.4v-3.034a1.52,1.52,0,0,0-.139-.645,1.161,1.161,0,0,0-.371-.469,1.878,1.878,0,0,0-.719-.292,7.512,7.512,0,0,0-.867-.125v-.677l5.01-.241.139.148V-2.05a1.364,1.364,0,0,0,.116.594.843.843,0,0,0,.376.38,1.728,1.728,0,0,0,.571.148q.376.046.617.056Zm-4.731-1.651V-7.088a4.113,4.113,0,0,0-.181-.473,1.943,1.943,0,0,0-.32-.492,1.672,1.672,0,0,0-.5-.343,1.605,1.605,0,0,0-.7-.148A1.743,1.743,0,0,0,169.9-7.5a6.067,6.067,0,0,0-.594,2.959,7.735,7.735,0,0,0,.107,1.35,3.553,3.553,0,0,0,.376,1.09,2.118,2.118,0,0,0,.691.77,1.8,1.8,0,0,0,1.016.278,1.827,1.827,0,0,0,.937-.218A2.786,2.786,0,0,0,173.115-1.846Zm15.308-.371a5.643,5.643,0,0,1-.784,1,4.759,4.759,0,0,1-1.044.8,5.723,5.723,0,0,1-1.257.533A5.35,5.35,0,0,1,183.877.3a6.507,6.507,0,0,1-2.37-.39,4.65,4.65,0,0,1-1.647-1.048A4.2,4.2,0,0,1,178.89-2.7a5.733,5.733,0,0,1-.32-1.944,4.828,4.828,0,0,1,.348-1.814A4.865,4.865,0,0,1,179.906-8,4.731,4.731,0,0,1,181.5-9.064a5.438,5.438,0,0,1,2.148-.408,6.116,6.116,0,0,1,2.134.315,3.777,3.777,0,0,1,1.382.872,3.162,3.162,0,0,1,.77,1.248,4.708,4.708,0,0,1,.241,1.508v.6H181.9a4.829,4.829,0,0,0,.733,2.895,2.7,2.7,0,0,0,2.329.993,2.705,2.705,0,0,0,1.568-.478,4.473,4.473,0,0,0,1.188-1.211Zm-3.544-3.525q0-.557-.056-1.141a3.8,3.8,0,0,0-.195-.956A1.468,1.468,0,0,0,184.2-8.5a1.06,1.06,0,0,0-.691-.223A1.286,1.286,0,0,0,182.365-8a4.919,4.919,0,0,0-.464,2.292Zm15.5,1.206A4.683,4.683,0,0,1,199-1.076,4.742,4.742,0,0,1,195.511.3a7.38,7.38,0,0,1-1.406-.116,5.437,5.437,0,0,1-1-.283,3.936,3.936,0,0,1-.682-.348q-.255-.172-.4-.283L190.7.473,190.148.26q.046-.677.079-1.47t.032-2.138v-8.684a1.5,1.5,0,0,0-.144-.654,1.094,1.094,0,0,0-.385-.459,1.8,1.8,0,0,0-.515-.195,3.6,3.6,0,0,0-.626-.1v-.677l4.583-.241.139.148v6.03h.056a4.639,4.639,0,0,1,1.392-.965,3.6,3.6,0,0,1,1.429-.306,3.81,3.81,0,0,1,3.071,1.327A5.379,5.379,0,0,1,200.381-4.537Zm-3.331.111a8.433,8.433,0,0,0-.107-1.359,4.018,4.018,0,0,0-.357-1.155,2.2,2.2,0,0,0-.659-.8,1.655,1.655,0,0,0-1.011-.3,2.089,2.089,0,0,0-.937.186,2.054,2.054,0,0,0-.668.547v5.4a3.147,3.147,0,0,0,.209.487,2.011,2.011,0,0,0,.311.469,1.658,1.658,0,0,0,.473.366,1.608,1.608,0,0,0,.705.125A1.66,1.66,0,0,0,196.5-1.5,6.362,6.362,0,0,0,197.051-4.425Zm11.43,4a11.957,11.957,0,0,1-1.271.469,5.664,5.664,0,0,1-1.651.209,2.912,2.912,0,0,1-2.148-.705,2.735,2.735,0,0,1-.7-2.013v-5.7h-1.67v-1h1.707v-2.811h3.015v2.811h2.6v1h-2.579V-3.08a2.913,2.913,0,0,0,.3,1.54,1.2,1.2,0,0,0,1.081.455q.25,0,.7-.037a4.18,4.18,0,0,0,.622-.083Zm4.945.742a5.937,5.937,0,0,1-1.758-.264,5.756,5.756,0,0,1-1.331-.561l-.278.631h-.724l-.121-3.46h.677a4.6,4.6,0,0,0,.464.942,5.192,5.192,0,0,0,.742.942,4.2,4.2,0,0,0,1,.705,2.6,2.6,0,0,0,1.2.288,2,2,0,0,0,1.257-.329,1.221,1.221,0,0,0,.413-1.016.975.975,0,0,0-.186-.612,1.584,1.584,0,0,0-.51-.417,4.712,4.712,0,0,0-.793-.315q-.431-.13-1.062-.315a10.215,10.215,0,0,1-1.081-.376,3.7,3.7,0,0,1-.932-.6,2.735,2.735,0,0,1-.668-.872,2.732,2.732,0,0,1-.25-1.215,2.506,2.506,0,0,1,1.1-2.115,4.752,4.752,0,0,1,2.881-.807,6.608,6.608,0,0,1,1.554.172,7.826,7.826,0,0,1,1.192.376l.195-.547h.705l.148,3.164H216.6a3.833,3.833,0,0,0-1.113-1.665,2.514,2.514,0,0,0-1.7-.7,1.875,1.875,0,0,0-1.123.3.963.963,0,0,0-.408.826,1.07,1.07,0,0,0,.6,1.021,8.011,8.011,0,0,0,1.675.594,5.463,5.463,0,0,1,2.431,1.164,2.489,2.489,0,0,1,.77,1.879A2.71,2.71,0,0,1,216.538-.52,5.314,5.314,0,0,1,213.425.315ZM11.142,25.805a7.008,7.008,0,0,1-.965.325A4.555,4.555,0,0,1,9,26.278,3.235,3.235,0,0,1,7.32,25.94a1.7,1.7,0,0,1-.733-.969H6.531a6.083,6.083,0,0,1-.608.538,3.488,3.488,0,0,1-.626.38,4.454,4.454,0,0,1-.84.3,5.056,5.056,0,0,1-1.127.1,2.771,2.771,0,0,1-1.837-.635,2.085,2.085,0,0,1-.761-1.684A2.791,2.791,0,0,1,.9,22.943a2.324,2.324,0,0,1,.473-.747,2.459,2.459,0,0,1,.645-.492,7.179,7.179,0,0,1,.8-.362q.835-.306,2-.635a11.32,11.32,0,0,0,1.707-.589v-.891q0-.232-.037-.612a1.98,1.98,0,0,0-.158-.64,1.224,1.224,0,0,0-.408-.5,1.211,1.211,0,0,0-.733-.2,1.753,1.753,0,0,0-.682.116,2.28,2.28,0,0,0-.441.237,3.632,3.632,0,0,0,.158.566,2.264,2.264,0,0,1,.13.733,1.234,1.234,0,0,1-.083.394.879.879,0,0,1-.241.376,1.6,1.6,0,0,1-.478.288,2.4,2.4,0,0,1-.812.1,1.659,1.659,0,0,1-1.178-.376,1.327,1.327,0,0,1,.014-1.911,3.377,3.377,0,0,1,1.007-.682,5.775,5.775,0,0,1,1.345-.431,7.18,7.18,0,0,1,1.41-.153A11.793,11.793,0,0,1,7,16.635a3.9,3.9,0,0,1,1.354.441,2.352,2.352,0,0,1,.914.942,3.335,3.335,0,0,1,.339,1.61q0,1.048-.042,2.486t-.042,1.893a1.443,1.443,0,0,0,.125.659.8.8,0,0,0,.385.362,1.37,1.37,0,0,0,.5.088q.339.014.617.014ZM6.531,20.972q-.52.176-1.03.4a4.11,4.11,0,0,0-.835.478,1.8,1.8,0,0,0-.538.663,2.166,2.166,0,0,0-.195.951,1.425,1.425,0,0,0,.329,1.048,1.111,1.111,0,0,0,.812.325,1.543,1.543,0,0,0,.84-.209,2.417,2.417,0,0,0,.58-.515ZM24.1,26H18.518v-.677l.427-.046a1.172,1.172,0,0,0,.38-.093.59.59,0,0,0,.278-.3,1.526,1.526,0,0,0,.083-.575V19.97a2.412,2.412,0,0,0-.348-1.424,1.188,1.188,0,0,0-1.025-.478,2.09,2.09,0,0,0-.691.111A2.575,2.575,0,0,0,17,18.5a2.135,2.135,0,0,0-.431.38q-.162.195-.274.343v4.982a1.39,1.39,0,0,0,.093.543.648.648,0,0,0,.306.329,1.778,1.778,0,0,0,.371.148,2.9,2.9,0,0,0,.436.093V26H11.856v-.677q.232-.019.469-.051a2.266,2.266,0,0,0,.4-.088.682.682,0,0,0,.408-.315,1.2,1.2,0,0,0,.111-.557v-5.4a1.19,1.19,0,0,0-.148-.566,1.327,1.327,0,0,0-.39-.455,1.532,1.532,0,0,0-.422-.186,2.974,2.974,0,0,0-.561-.1v-.677l4.425-.241.139.139V18.17h.037q.26-.232.631-.557a6.077,6.077,0,0,1,.687-.529,3.332,3.332,0,0,1,.9-.38,4.338,4.338,0,0,1,1.188-.158A2.865,2.865,0,0,1,22,17.4a3.32,3.32,0,0,1,.756,2.278v4.546a1.234,1.234,0,0,0,.1.547.721.721,0,0,0,.38.325,3.231,3.231,0,0,0,.366.13,2.679,2.679,0,0,0,.5.093Zm12.858-.195-4.574.269-.139-.13v-.854l-.065-.019a3.951,3.951,0,0,1-1.229.858,3.624,3.624,0,0,1-1.563.366A3.921,3.921,0,0,1,26.3,24.905a5.273,5.273,0,0,1-1.215-3.6,4.652,4.652,0,0,1,1.359-3.358,4.414,4.414,0,0,1,3.289-1.4,5.724,5.724,0,0,1,1.429.172,4.267,4.267,0,0,1,1.067.4V14.088a1.52,1.52,0,0,0-.139-.645,1.161,1.161,0,0,0-.371-.469A1.878,1.878,0,0,0,31,12.682a7.513,7.513,0,0,0-.867-.125V11.88l5.01-.241.139.148V23.95a1.364,1.364,0,0,0,.116.594.843.843,0,0,0,.376.38,1.728,1.728,0,0,0,.571.148q.376.046.617.056Zm-4.731-1.651V18.912a4.114,4.114,0,0,0-.181-.473,1.943,1.943,0,0,0-.32-.492,1.672,1.672,0,0,0-.5-.343,1.605,1.605,0,0,0-.7-.148A1.743,1.743,0,0,0,29.01,18.5a6.067,6.067,0,0,0-.594,2.959,7.734,7.734,0,0,0,.107,1.35A3.553,3.553,0,0,0,28.9,23.9a2.118,2.118,0,0,0,.691.77,1.8,1.8,0,0,0,1.016.278,1.827,1.827,0,0,0,.937-.218A2.786,2.786,0,0,0,32.229,24.154Zm14.454,2.162a5.937,5.937,0,0,1-1.758-.264,5.756,5.756,0,0,1-1.331-.561l-.278.631h-.724l-.121-3.46h.677a4.6,4.6,0,0,0,.464.942,5.191,5.191,0,0,0,.742.942,4.2,4.2,0,0,0,1,.705,2.6,2.6,0,0,0,1.2.288,2,2,0,0,0,1.257-.329,1.221,1.221,0,0,0,.413-1.016.975.975,0,0,0-.186-.612,1.584,1.584,0,0,0-.51-.417,4.712,4.712,0,0,0-.793-.315q-.431-.13-1.062-.315a10.215,10.215,0,0,1-1.081-.376,3.7,3.7,0,0,1-.932-.6,2.619,2.619,0,0,1-.918-2.087,2.506,2.506,0,0,1,1.1-2.115,4.752,4.752,0,0,1,2.881-.807,6.608,6.608,0,0,1,1.554.172,7.826,7.826,0,0,1,1.192.376l.195-.547h.705l.148,3.164h-.659a3.833,3.833,0,0,0-1.113-1.665,2.514,2.514,0,0,0-1.7-.7,1.875,1.875,0,0,0-1.123.3.963.963,0,0,0-.408.826,1.07,1.07,0,0,0,.6,1.021,8.011,8.011,0,0,0,1.675.594,5.463,5.463,0,0,1,2.431,1.164,2.489,2.489,0,0,1,.77,1.879A2.71,2.71,0,0,1,49.8,25.48,5.314,5.314,0,0,1,46.684,26.315Zm12.348-.742a11.957,11.957,0,0,1-1.271.469,5.664,5.664,0,0,1-1.651.209,2.912,2.912,0,0,1-2.148-.705,2.735,2.735,0,0,1-.7-2.013v-5.7h-1.67v-1H53.3V14.023h3.015v2.811h2.6v1H56.332V22.92a2.913,2.913,0,0,0,.3,1.54,1.2,1.2,0,0,0,1.081.455q.25,0,.7-.037a4.18,4.18,0,0,0,.622-.083Zm11.253.232a7.008,7.008,0,0,1-.965.325,4.555,4.555,0,0,1-1.178.148,3.235,3.235,0,0,1-1.679-.339,1.7,1.7,0,0,1-.733-.969h-.056a6.083,6.083,0,0,1-.608.538,3.488,3.488,0,0,1-.626.38,4.454,4.454,0,0,1-.84.3,5.056,5.056,0,0,1-1.127.1,2.771,2.771,0,0,1-1.837-.635,2.085,2.085,0,0,1-.761-1.684,2.791,2.791,0,0,1,.167-1.025,2.324,2.324,0,0,1,.473-.747,2.459,2.459,0,0,1,.645-.492,7.179,7.179,0,0,1,.8-.362q.835-.306,2-.635a11.32,11.32,0,0,0,1.707-.589v-.891q0-.232-.037-.612a1.98,1.98,0,0,0-.158-.64,1.224,1.224,0,0,0-.408-.5,1.211,1.211,0,0,0-.733-.2,1.753,1.753,0,0,0-.682.116,2.281,2.281,0,0,0-.441.237,3.632,3.632,0,0,0,.158.566,2.264,2.264,0,0,1,.13.733,1.234,1.234,0,0,1-.083.394.879.879,0,0,1-.241.376,1.6,1.6,0,0,1-.478.288,2.4,2.4,0,0,1-.812.1,1.659,1.659,0,0,1-1.178-.376,1.327,1.327,0,0,1,.014-1.911,3.377,3.377,0,0,1,1.007-.682,5.775,5.775,0,0,1,1.345-.431,7.18,7.18,0,0,1,1.41-.153,11.793,11.793,0,0,1,1.651.107,3.9,3.9,0,0,1,1.354.441,2.352,2.352,0,0,1,.914.942,3.335,3.335,0,0,1,.339,1.61q0,1.048-.042,2.486t-.042,1.893a1.443,1.443,0,0,0,.125.659.8.8,0,0,0,.385.362,1.37,1.37,0,0,0,.5.088q.339.014.617.014Zm-4.611-4.833q-.52.176-1.03.4a4.11,4.11,0,0,0-.835.478,1.8,1.8,0,0,0-.538.663,2.166,2.166,0,0,0-.195.951,1.425,1.425,0,0,0,.329,1.048,1.111,1.111,0,0,0,.812.325,1.543,1.543,0,0,0,.84-.209,2.417,2.417,0,0,0,.58-.515Zm16.393.492a4.683,4.683,0,0,1-1.378,3.46A4.742,4.742,0,0,1,77.2,26.3a7.38,7.38,0,0,1-1.406-.116,5.437,5.437,0,0,1-1-.283,3.935,3.935,0,0,1-.682-.348q-.255-.172-.4-.283l-1.327,1.206-.547-.213q.046-.677.079-1.47t.032-2.138V13.967a1.5,1.5,0,0,0-.144-.654,1.094,1.094,0,0,0-.385-.459,1.8,1.8,0,0,0-.515-.195,3.6,3.6,0,0,0-.626-.1V11.88l4.583-.241.139.148v6.03h.056a4.64,4.64,0,0,1,1.392-.965,3.6,3.6,0,0,1,1.429-.306,3.81,3.81,0,0,1,3.071,1.327A5.379,5.379,0,0,1,82.067,21.463Zm-3.331.111a8.433,8.433,0,0,0-.107-1.359,4.018,4.018,0,0,0-.357-1.155,2.2,2.2,0,0,0-.659-.8,1.655,1.655,0,0,0-1.011-.3,2.089,2.089,0,0,0-.937.186,2.054,2.054,0,0,0-.668.547v5.4a3.147,3.147,0,0,0,.209.487,2.011,2.011,0,0,0,.311.469,1.658,1.658,0,0,0,.473.366,1.608,1.608,0,0,0,.705.125A1.66,1.66,0,0,0,78.189,24.5,6.363,6.363,0,0,0,78.737,21.575ZM88.914,26H83.1v-.677q.241-.019.469-.046a1.8,1.8,0,0,0,.4-.093.7.7,0,0,0,.4-.32,1.218,1.218,0,0,0,.107-.552V14.032a1.5,1.5,0,0,0-.144-.654,1.094,1.094,0,0,0-.385-.459,2.236,2.236,0,0,0-.561-.232,3.073,3.073,0,0,0-.663-.13V11.88l4.667-.241.139.148v12.4a1.125,1.125,0,0,0,.121.557.807.807,0,0,0,.39.334,3.633,3.633,0,0,0,.39.148,2.387,2.387,0,0,0,.482.093Zm10.864-2.217a5.642,5.642,0,0,1-.784,1,4.759,4.759,0,0,1-1.044.8,5.723,5.723,0,0,1-1.257.533,5.35,5.35,0,0,1-1.461.181,6.507,6.507,0,0,1-2.37-.39,4.65,4.65,0,0,1-1.647-1.048,4.2,4.2,0,0,1-.969-1.554,5.733,5.733,0,0,1-.32-1.944A4.878,4.878,0,0,1,91.261,18a4.73,4.73,0,0,1,1.591-1.067A5.438,5.438,0,0,1,95,16.528a6.116,6.116,0,0,1,2.134.315,3.777,3.777,0,0,1,1.382.872,3.162,3.162,0,0,1,.77,1.248,4.708,4.708,0,0,1,.241,1.508v.6H93.256a4.828,4.828,0,0,0,.733,2.895,3.055,3.055,0,0,0,3.9.515,4.473,4.473,0,0,0,1.188-1.211Zm-3.544-3.525q0-.557-.056-1.141a3.8,3.8,0,0,0-.195-.956,1.468,1.468,0,0,0-.431-.659,1.06,1.06,0,0,0-.691-.223A1.286,1.286,0,0,0,93.72,18a4.919,4.919,0,0,0-.464,2.292Zm20.559,1.225a4.748,4.748,0,0,1-1.308,3.358,4.336,4.336,0,0,1-3.312,1.4,4.789,4.789,0,0,1-1.447-.181,3.343,3.343,0,0,1-.918-.441h-.074v2.607a1.084,1.084,0,0,0,.144.566.846.846,0,0,0,.4.353,3.744,3.744,0,0,0,.71.186,6.686,6.686,0,0,0,.765.1v.687h-6.7v-.687q.232-.019.584-.07a3.6,3.6,0,0,0,.529-.107.637.637,0,0,0,.4-.348,1.4,1.4,0,0,0,.107-.561V18.856a1.5,1.5,0,0,0-.144-.538,1.111,1.111,0,0,0-.366-.408,1.672,1.672,0,0,0-.492-.2,3.861,3.861,0,0,0-.6-.107v-.677l4.518-.241.139.121v1.03l.074.019a4.594,4.594,0,0,1,1.359-.965,3.521,3.521,0,0,1,1.48-.343,3.712,3.712,0,0,1,3.034,1.359A5.466,5.466,0,0,1,116.792,21.482Zm-3.331.037a8.391,8.391,0,0,0-.1-1.331A3.742,3.742,0,0,0,113,19.051a2.139,2.139,0,0,0-.663-.8,1.678,1.678,0,0,0-1.007-.3,1.925,1.925,0,0,0-.965.209,2.247,2.247,0,0,0-.631.543v5.26a2.714,2.714,0,0,0,.213.478,2.453,2.453,0,0,0,.315.469,1.471,1.471,0,0,0,.529.371,1.709,1.709,0,0,0,.649.121,1.654,1.654,0,0,0,1.47-.988A6.071,6.071,0,0,0,113.462,21.519Zm14.5,2.264a5.642,5.642,0,0,1-.784,1,4.759,4.759,0,0,1-1.044.8,5.723,5.723,0,0,1-1.257.533,5.35,5.35,0,0,1-1.461.181,6.507,6.507,0,0,1-2.37-.39,4.65,4.65,0,0,1-1.647-1.048,4.2,4.2,0,0,1-.969-1.554,5.733,5.733,0,0,1-.32-1.944A4.878,4.878,0,0,1,119.446,18a4.73,4.73,0,0,1,1.591-1.067,5.438,5.438,0,0,1,2.148-.408,6.116,6.116,0,0,1,2.134.315,3.777,3.777,0,0,1,1.382.872,3.162,3.162,0,0,1,.77,1.248,4.708,4.708,0,0,1,.241,1.508v.6H121.44a4.828,4.828,0,0,0,.733,2.895,3.055,3.055,0,0,0,3.9.515,4.473,4.473,0,0,0,1.188-1.211Zm-3.544-3.525q0-.557-.056-1.141a3.8,3.8,0,0,0-.195-.956,1.468,1.468,0,0,0-.431-.659,1.06,1.06,0,0,0-.691-.223A1.286,1.286,0,0,0,121.9,18a4.919,4.919,0,0,0-.464,2.292Zm13.675-1.763a1.9,1.9,0,0,1-.436,1.239,1.413,1.413,0,0,1-1.15.533,1.886,1.886,0,0,1-1.146-.343,1.174,1.174,0,0,1-.469-1.011,2.139,2.139,0,0,1,.046-.506q.046-.181.083-.339a1.955,1.955,0,0,0-.9.3,2.96,2.96,0,0,0-.835.742V24.2a1.246,1.246,0,0,0,.1.538.721.721,0,0,0,.343.334,2.4,2.4,0,0,0,.663.172q.459.07.663.079V26h-6.207v-.677q.232-.019.469-.051a2.266,2.266,0,0,0,.4-.088.682.682,0,0,0,.408-.315,1.2,1.2,0,0,0,.111-.557v-5.4a1.145,1.145,0,0,0-.158-.6,1.363,1.363,0,0,0-.38-.422,1.532,1.532,0,0,0-.422-.186,2.974,2.974,0,0,0-.561-.1v-.677l4.425-.241.139.139V18.17h.037a5.468,5.468,0,0,1,1.359-1.164,2.918,2.918,0,0,1,1.5-.422,1.857,1.857,0,0,1,1.387.533A1.882,1.882,0,0,1,138.093,18.495Zm4.936,7.821a5.937,5.937,0,0,1-1.758-.264,5.756,5.756,0,0,1-1.331-.561l-.278.631h-.724l-.121-3.46h.677a4.6,4.6,0,0,0,.464.942,5.192,5.192,0,0,0,.742.942,4.2,4.2,0,0,0,1,.705,2.6,2.6,0,0,0,1.2.288,2,2,0,0,0,1.257-.329,1.221,1.221,0,0,0,.413-1.016.975.975,0,0,0-.186-.612,1.584,1.584,0,0,0-.51-.417,4.712,4.712,0,0,0-.793-.315q-.431-.13-1.062-.315a10.215,10.215,0,0,1-1.081-.376,3.7,3.7,0,0,1-.932-.6,2.619,2.619,0,0,1-.918-2.087,2.506,2.506,0,0,1,1.1-2.115,4.752,4.752,0,0,1,2.881-.807,6.608,6.608,0,0,1,1.554.172,7.826,7.826,0,0,1,1.192.376l.195-.547h.705l.148,3.164H146.2a3.833,3.833,0,0,0-1.113-1.665,2.514,2.514,0,0,0-1.7-.7,1.875,1.875,0,0,0-1.123.3.963.963,0,0,0-.408.826,1.07,1.07,0,0,0,.6,1.021,8.011,8.011,0,0,0,1.675.594,5.463,5.463,0,0,1,2.431,1.164,2.489,2.489,0,0,1,.77,1.879,2.71,2.71,0,0,1-1.192,2.356A5.314,5.314,0,0,1,143.029,26.315Zm14.918-8.424A4.255,4.255,0,0,1,159,19.422a5.078,5.078,0,0,1,.362,1.93A5.291,5.291,0,0,1,159,23.3a4.251,4.251,0,0,1-1.044,1.563,4.994,4.994,0,0,1-1.749,1.067,6.749,6.749,0,0,1-2.324.371,6.409,6.409,0,0,1-2.083-.325A4.9,4.9,0,0,1,150.117,25,4.417,4.417,0,0,1,149,23.463a4.962,4.962,0,0,1-.408-2.046,5.165,5.165,0,0,1,.357-1.981,4.447,4.447,0,0,1,1.072-1.545,4.724,4.724,0,0,1,1.693-1.007,7.381,7.381,0,0,1,4.537,0A4.948,4.948,0,0,1,157.947,17.892Zm-2.375,6.429a5.4,5.4,0,0,0,.3-1.262,13.425,13.425,0,0,0,.1-1.726,13.606,13.606,0,0,0-.093-1.484,5.479,5.479,0,0,0-.278-1.317,2.2,2.2,0,0,0-.617-.918,1.685,1.685,0,0,0-2.05.028,2.358,2.358,0,0,0-.608.937,5.142,5.142,0,0,0-.269,1.239,14.23,14.23,0,0,0-.074,1.48q0,1.011.065,1.675a5.235,5.235,0,0,0,.315,1.331,2.114,2.114,0,0,0,.612.909,1.661,1.661,0,0,0,1.967.023A2.061,2.061,0,0,0,155.572,24.321ZM172.8,26h-5.585v-.677l.427-.046a1.172,1.172,0,0,0,.38-.093.59.59,0,0,0,.278-.3,1.526,1.526,0,0,0,.083-.575V19.97a2.412,2.412,0,0,0-.348-1.424,1.188,1.188,0,0,0-1.025-.478,2.09,2.09,0,0,0-.691.111,2.575,2.575,0,0,0-.626.325,2.134,2.134,0,0,0-.431.38q-.162.195-.274.343v4.982a1.39,1.39,0,0,0,.093.543.648.648,0,0,0,.306.329,1.778,1.778,0,0,0,.371.148,2.894,2.894,0,0,0,.436.093V26h-5.641v-.677q.232-.019.469-.051a2.266,2.266,0,0,0,.4-.088.682.682,0,0,0,.408-.315,1.2,1.2,0,0,0,.111-.557v-5.4a1.19,1.19,0,0,0-.148-.566,1.326,1.326,0,0,0-.39-.455,1.532,1.532,0,0,0-.422-.186,2.974,2.974,0,0,0-.561-.1v-.677l4.425-.241.139.139V18.17h.037q.26-.232.631-.557a6.077,6.077,0,0,1,.687-.529,3.332,3.332,0,0,1,.9-.38,4.338,4.338,0,0,1,1.188-.158,2.865,2.865,0,0,1,2.268.858,3.32,3.32,0,0,1,.756,2.278v4.546a1.234,1.234,0,0,0,.1.547.721.721,0,0,0,.38.325,3.231,3.231,0,0,0,.366.13,2.679,2.679,0,0,0,.5.093Zm11.467-.195a7.009,7.009,0,0,1-.965.325,4.555,4.555,0,0,1-1.178.148,3.235,3.235,0,0,1-1.679-.339,1.7,1.7,0,0,1-.733-.969h-.056a6.083,6.083,0,0,1-.608.538,3.488,3.488,0,0,1-.626.38,4.454,4.454,0,0,1-.84.3,5.056,5.056,0,0,1-1.127.1,2.771,2.771,0,0,1-1.837-.635,2.085,2.085,0,0,1-.761-1.684,2.791,2.791,0,0,1,.167-1.025,2.324,2.324,0,0,1,.473-.747,2.459,2.459,0,0,1,.645-.492,7.179,7.179,0,0,1,.8-.362q.835-.306,2-.635a11.32,11.32,0,0,0,1.707-.589v-.891q0-.232-.037-.612a1.98,1.98,0,0,0-.158-.64,1.224,1.224,0,0,0-.408-.5,1.211,1.211,0,0,0-.733-.2,1.753,1.753,0,0,0-.682.116,2.281,2.281,0,0,0-.441.237,3.631,3.631,0,0,0,.158.566,2.264,2.264,0,0,1,.13.733,1.234,1.234,0,0,1-.083.394.879.879,0,0,1-.241.376,1.6,1.6,0,0,1-.478.288,2.4,2.4,0,0,1-.812.1,1.659,1.659,0,0,1-1.178-.376,1.327,1.327,0,0,1,.014-1.911,3.377,3.377,0,0,1,1.007-.682,5.775,5.775,0,0,1,1.345-.431,7.18,7.18,0,0,1,1.41-.153,11.793,11.793,0,0,1,1.651.107,3.9,3.9,0,0,1,1.354.441,2.352,2.352,0,0,1,.914.942,3.334,3.334,0,0,1,.339,1.61q0,1.048-.042,2.486t-.042,1.893a1.443,1.443,0,0,0,.125.659.8.8,0,0,0,.385.362,1.37,1.37,0,0,0,.5.088q.339.014.617.014Zm-4.611-4.833q-.52.176-1.03.4a4.111,4.111,0,0,0-.835.478,1.8,1.8,0,0,0-.538.663,2.166,2.166,0,0,0-.195.951,1.425,1.425,0,0,0,.329,1.048,1.111,1.111,0,0,0,.812.325,1.543,1.543,0,0,0,.84-.209,2.417,2.417,0,0,0,.58-.515ZM190.631,26h-5.817v-.677q.241-.019.469-.046a1.8,1.8,0,0,0,.4-.093.7.7,0,0,0,.4-.32,1.218,1.218,0,0,0,.107-.552V14.032a1.5,1.5,0,0,0-.144-.654,1.094,1.094,0,0,0-.385-.459,2.236,2.236,0,0,0-.561-.232,3.074,3.074,0,0,0-.663-.13V11.88l4.667-.241.139.148v12.4a1.125,1.125,0,0,0,.121.557.807.807,0,0,0,.39.334,3.634,3.634,0,0,0,.39.148,2.387,2.387,0,0,0,.482.093Zm16.319-.195a7.009,7.009,0,0,1-.965.325,4.555,4.555,0,0,1-1.178.148,3.235,3.235,0,0,1-1.679-.339,1.7,1.7,0,0,1-.733-.969h-.056a6.083,6.083,0,0,1-.608.538,3.488,3.488,0,0,1-.626.38,4.454,4.454,0,0,1-.84.3,5.056,5.056,0,0,1-1.127.1,2.771,2.771,0,0,1-1.837-.635,2.085,2.085,0,0,1-.761-1.684,2.791,2.791,0,0,1,.167-1.025,2.324,2.324,0,0,1,.473-.747,2.459,2.459,0,0,1,.645-.492,7.179,7.179,0,0,1,.8-.362q.835-.306,2-.635a11.32,11.32,0,0,0,1.707-.589v-.891q0-.232-.037-.612a1.98,1.98,0,0,0-.158-.64,1.224,1.224,0,0,0-.408-.5,1.211,1.211,0,0,0-.733-.2,1.753,1.753,0,0,0-.682.116,2.281,2.281,0,0,0-.441.237,3.631,3.631,0,0,0,.158.566,2.264,2.264,0,0,1,.13.733,1.234,1.234,0,0,1-.083.394.879.879,0,0,1-.241.376,1.6,1.6,0,0,1-.478.288,2.4,2.4,0,0,1-.812.1,1.659,1.659,0,0,1-1.178-.376,1.327,1.327,0,0,1,.014-1.911,3.377,3.377,0,0,1,1.007-.682,5.775,5.775,0,0,1,1.345-.431,7.18,7.18,0,0,1,1.41-.153,11.793,11.793,0,0,1,1.651.107,3.9,3.9,0,0,1,1.354.441,2.352,2.352,0,0,1,.914.942,3.334,3.334,0,0,1,.339,1.61q0,1.048-.042,2.486t-.042,1.893a1.443,1.443,0,0,0,.125.659.8.8,0,0,0,.385.362,1.37,1.37,0,0,0,.5.088q.339.014.617.014Zm-4.611-4.833q-.52.176-1.03.4a4.111,4.111,0,0,0-.835.478,1.8,1.8,0,0,0-.538.663,2.166,2.166,0,0,0-.195.951,1.425,1.425,0,0,0,.329,1.048,1.111,1.111,0,0,0,.812.325,1.543,1.543,0,0,0,.84-.209,2.417,2.417,0,0,0,.58-.515Zm9.621,5.344a5.937,5.937,0,0,1-1.758-.264,5.756,5.756,0,0,1-1.331-.561l-.278.631h-.724l-.121-3.46h.677a4.6,4.6,0,0,0,.464.942,5.192,5.192,0,0,0,.742.942,4.2,4.2,0,0,0,1,.705,2.6,2.6,0,0,0,1.2.288,2,2,0,0,0,1.257-.329,1.221,1.221,0,0,0,.413-1.016.975.975,0,0,0-.186-.612,1.584,1.584,0,0,0-.51-.417,4.712,4.712,0,0,0-.793-.315q-.431-.13-1.062-.315a10.215,10.215,0,0,1-1.081-.376,3.7,3.7,0,0,1-.932-.6,2.619,2.619,0,0,1-.918-2.087,2.506,2.506,0,0,1,1.1-2.115A4.752,4.752,0,0,1,212,16.546a6.608,6.608,0,0,1,1.554.172,7.826,7.826,0,0,1,1.192.376l.195-.547h.705l.148,3.164h-.659a3.833,3.833,0,0,0-1.113-1.665,2.514,2.514,0,0,0-1.7-.7,1.875,1.875,0,0,0-1.123.3.963.963,0,0,0-.408.826,1.07,1.07,0,0,0,.6,1.021,8.011,8.011,0,0,0,1.675.594,5.463,5.463,0,0,1,2.431,1.164,2.489,2.489,0,0,1,.77,1.879,2.71,2.71,0,0,1-1.192,2.356A5.314,5.314,0,0,1,211.959,26.315Zm9.741,0a5.937,5.937,0,0,1-1.758-.264,5.756,5.756,0,0,1-1.331-.561l-.278.631h-.724l-.121-3.46h.677a4.6,4.6,0,0,0,.464.942,5.192,5.192,0,0,0,.742.942,4.2,4.2,0,0,0,1,.705,2.6,2.6,0,0,0,1.2.288,2,2,0,0,0,1.257-.329,1.221,1.221,0,0,0,.413-1.016.975.975,0,0,0-.186-.612,1.584,1.584,0,0,0-.51-.417,4.712,4.712,0,0,0-.793-.315q-.431-.13-1.062-.315a10.215,10.215,0,0,1-1.081-.376,3.7,3.7,0,0,1-.932-.6,2.619,2.619,0,0,1-.918-2.087,2.506,2.506,0,0,1,1.1-2.115,4.752,4.752,0,0,1,2.881-.807,6.608,6.608,0,0,1,1.554.172,7.826,7.826,0,0,1,1.192.376l.195-.547h.705l.148,3.164h-.659a3.833,3.833,0,0,0-1.113-1.665,2.514,2.514,0,0,0-1.7-.7,1.875,1.875,0,0,0-1.123.3.963.963,0,0,0-.408.826,1.07,1.07,0,0,0,.6,1.021,8.011,8.011,0,0,0,1.675.594,5.463,5.463,0,0,1,2.431,1.164,2.489,2.489,0,0,1,.77,1.879,2.71,2.71,0,0,1-1.192,2.356A5.314,5.314,0,0,1,221.7,26.315Zm15.419-2.533a5.643,5.643,0,0,1-.784,1,4.759,4.759,0,0,1-1.044.8,5.723,5.723,0,0,1-1.257.533,5.35,5.35,0,0,1-1.461.181,6.507,6.507,0,0,1-2.37-.39,4.65,4.65,0,0,1-1.647-1.048,4.2,4.2,0,0,1-.969-1.554,5.733,5.733,0,0,1-.32-1.944A4.878,4.878,0,0,1,228.6,18a4.731,4.731,0,0,1,1.591-1.067,5.438,5.438,0,0,1,2.148-.408,6.116,6.116,0,0,1,2.134.315,3.777,3.777,0,0,1,1.382.872,3.162,3.162,0,0,1,.77,1.248,4.708,4.708,0,0,1,.241,1.508v.6H230.6a4.829,4.829,0,0,0,.733,2.895,3.055,3.055,0,0,0,3.9.515,4.473,4.473,0,0,0,1.188-1.211Zm-3.544-3.525q0-.557-.056-1.141a3.8,3.8,0,0,0-.195-.956,1.468,1.468,0,0,0-.431-.659,1.06,1.06,0,0,0-.691-.223,1.286,1.286,0,0,0-1.141.724,4.919,4.919,0,0,0-.464,2.292Zm11.337,5.316a11.957,11.957,0,0,1-1.271.469,5.664,5.664,0,0,1-1.651.209,2.912,2.912,0,0,1-2.148-.705,2.735,2.735,0,0,1-.7-2.013v-5.7h-1.67v-1h1.707V14.023h3.015v2.811h2.6v1h-2.579V22.92a2.913,2.913,0,0,0,.3,1.54,1.2,1.2,0,0,0,1.081.455q.25,0,.7-.037a4.18,4.18,0,0,0,.622-.083Zm4.945.742a5.937,5.937,0,0,1-1.758-.264,5.756,5.756,0,0,1-1.331-.561l-.278.631h-.724l-.121-3.46h.677a4.6,4.6,0,0,0,.464.942,5.192,5.192,0,0,0,.742.942,4.2,4.2,0,0,0,1,.705,2.6,2.6,0,0,0,1.2.288,2,2,0,0,0,1.257-.329,1.221,1.221,0,0,0,.413-1.016.975.975,0,0,0-.186-.612,1.584,1.584,0,0,0-.51-.417,4.712,4.712,0,0,0-.793-.315q-.431-.13-1.062-.315a10.215,10.215,0,0,1-1.081-.376,3.7,3.7,0,0,1-.932-.6,2.619,2.619,0,0,1-.918-2.087,2.506,2.506,0,0,1,1.1-2.115,4.752,4.752,0,0,1,2.881-.807,6.608,6.608,0,0,1,1.554.172,7.826,7.826,0,0,1,1.192.376l.195-.547h.705l.148,3.164h-.659a3.833,3.833,0,0,0-1.113-1.665,2.514,2.514,0,0,0-1.7-.7,1.875,1.875,0,0,0-1.123.3.963.963,0,0,0-.408.826,1.07,1.07,0,0,0,.6,1.021,8.011,8.011,0,0,0,1.675.594,5.463,5.463,0,0,1,2.431,1.164,2.489,2.489,0,0,1,.77,1.879,2.71,2.71,0,0,1-1.192,2.356A5.314,5.314,0,0,1,249.857,26.315Z" transform="translate(830 544)"/>
    <path id="Pfad_1093" data-name="Pfad 1093" class="cls-2" d="M12.979-9.871a3.8,3.8,0,0,1-.459,1.916,3.65,3.65,0,0,1-1.266,1.3A5.966,5.966,0,0,1,9.347-5.9a11.419,11.419,0,0,1-2.407.232H5.863v3.7a1.262,1.262,0,0,0,.125.58.894.894,0,0,0,.478.394,3.785,3.785,0,0,0,.6.158q.417.083.705.111V0H.64V-.724Q.909-.751,1.354-.8a2.549,2.549,0,0,0,.622-.125.908.908,0,0,0,.478-.362,1.256,1.256,0,0,0,.116-.594V-11.17a1.307,1.307,0,0,0-.111-.561.877.877,0,0,0-.482-.394,3.667,3.667,0,0,0-.691-.2q-.431-.088-.645-.116v-.724H7.9a7.15,7.15,0,0,1,3.813.812A2.747,2.747,0,0,1,12.979-9.871ZM9.361-9.4a3.4,3.4,0,0,0-.6-2.2,2.651,2.651,0,0,0-2.129-.719h-.77v5.78h.39a3.4,3.4,0,0,0,2.315-.7A2.731,2.731,0,0,0,9.361-9.4ZM23.833-2.217a5.642,5.642,0,0,1-.784,1,4.759,4.759,0,0,1-1.044.8,5.723,5.723,0,0,1-1.257.533A5.35,5.35,0,0,1,19.288.3a6.507,6.507,0,0,1-2.37-.39,4.65,4.65,0,0,1-1.647-1.048A4.2,4.2,0,0,1,14.3-2.7a5.733,5.733,0,0,1-.32-1.944,4.828,4.828,0,0,1,.348-1.814A4.865,4.865,0,0,1,15.317-8a4.73,4.73,0,0,1,1.591-1.067,5.438,5.438,0,0,1,2.148-.408,6.116,6.116,0,0,1,2.134.315,3.777,3.777,0,0,1,1.382.872,3.162,3.162,0,0,1,.77,1.248,4.708,4.708,0,0,1,.241,1.508v.6H17.312a4.829,4.829,0,0,0,.733,2.895,2.7,2.7,0,0,0,2.329.993,2.705,2.705,0,0,0,1.568-.478,4.473,4.473,0,0,0,1.188-1.211ZM20.29-5.743q0-.557-.056-1.141a3.8,3.8,0,0,0-.195-.956,1.468,1.468,0,0,0-.431-.659,1.06,1.06,0,0,0-.691-.223A1.286,1.286,0,0,0,17.775-8a4.919,4.919,0,0,0-.464,2.292ZM33.964-7.505a1.9,1.9,0,0,1-.436,1.239,1.413,1.413,0,0,1-1.15.533,1.886,1.886,0,0,1-1.146-.343,1.174,1.174,0,0,1-.469-1.011,2.14,2.14,0,0,1,.046-.506q.046-.181.083-.339a1.955,1.955,0,0,0-.9.3,2.96,2.96,0,0,0-.835.742V-1.8a1.246,1.246,0,0,0,.1.538.721.721,0,0,0,.343.334,2.4,2.4,0,0,0,.663.172q.459.07.663.079V0H24.724V-.677q.232-.019.469-.051a2.266,2.266,0,0,0,.4-.088A.682.682,0,0,0,26-1.132a1.2,1.2,0,0,0,.111-.557v-5.4a1.145,1.145,0,0,0-.158-.6,1.363,1.363,0,0,0-.38-.422,1.532,1.532,0,0,0-.422-.186,2.974,2.974,0,0,0-.561-.1v-.677l4.425-.241.139.139V-7.83H29.2a5.468,5.468,0,0,1,1.359-1.164,2.918,2.918,0,0,1,1.5-.422,1.857,1.857,0,0,1,1.387.533A1.882,1.882,0,0,1,33.964-7.505ZM38.9.315A5.937,5.937,0,0,1,37.142.051,5.756,5.756,0,0,1,35.811-.51l-.278.631h-.724l-.121-3.46h.677a4.6,4.6,0,0,0,.464.942,5.191,5.191,0,0,0,.742.942,4.2,4.2,0,0,0,1,.705,2.6,2.6,0,0,0,1.2.288,2,2,0,0,0,1.257-.329,1.221,1.221,0,0,0,.413-1.016.975.975,0,0,0-.186-.612,1.584,1.584,0,0,0-.51-.417,4.712,4.712,0,0,0-.793-.315q-.431-.13-1.062-.315a10.215,10.215,0,0,1-1.081-.376,3.7,3.7,0,0,1-.932-.6,2.735,2.735,0,0,1-.668-.872,2.732,2.732,0,0,1-.25-1.215,2.506,2.506,0,0,1,1.1-2.115,4.752,4.752,0,0,1,2.881-.807,6.607,6.607,0,0,1,1.554.172,7.826,7.826,0,0,1,1.192.376l.195-.547h.705l.148,3.164h-.659a3.833,3.833,0,0,0-1.113-1.665,2.514,2.514,0,0,0-1.7-.7,1.875,1.875,0,0,0-1.123.3.963.963,0,0,0-.408.826,1.07,1.07,0,0,0,.6,1.021A8.011,8.011,0,0,0,40-5.919a5.463,5.463,0,0,1,2.431,1.164,2.489,2.489,0,0,1,.77,1.879A2.71,2.71,0,0,1,42.012-.52,5.314,5.314,0,0,1,38.9.315ZM53.818-8.108a4.255,4.255,0,0,1,1.048,1.531,5.078,5.078,0,0,1,.362,1.93A5.291,5.291,0,0,1,54.871-2.7a4.251,4.251,0,0,1-1.044,1.563A4.994,4.994,0,0,1,52.078-.074,6.749,6.749,0,0,1,49.754.3a6.409,6.409,0,0,1-2.083-.325A4.9,4.9,0,0,1,45.988-1a4.417,4.417,0,0,1-1.113-1.535,4.962,4.962,0,0,1-.408-2.046,5.165,5.165,0,0,1,.357-1.981A4.447,4.447,0,0,1,45.9-8.108a4.724,4.724,0,0,1,1.693-1.007,6.694,6.694,0,0,1,2.25-.357,6.713,6.713,0,0,1,2.287.357A4.948,4.948,0,0,1,53.818-8.108ZM51.443-1.679a5.4,5.4,0,0,0,.3-1.262,13.425,13.425,0,0,0,.1-1.726,13.605,13.605,0,0,0-.093-1.484,5.479,5.479,0,0,0-.278-1.317,2.2,2.2,0,0,0-.617-.918,1.489,1.489,0,0,0-1-.334,1.5,1.5,0,0,0-1.053.362,2.358,2.358,0,0,0-.608.937,5.141,5.141,0,0,0-.269,1.239,14.231,14.231,0,0,0-.074,1.48q0,1.011.065,1.675A5.236,5.236,0,0,0,48.233-1.7a2.114,2.114,0,0,0,.612.909,1.522,1.522,0,0,0,1.011.334,1.508,1.508,0,0,0,.956-.311A2.061,2.061,0,0,0,51.443-1.679ZM68.671,0H63.086V-.677l.427-.046a1.172,1.172,0,0,0,.38-.093.59.59,0,0,0,.278-.3,1.526,1.526,0,0,0,.083-.575V-6.03a2.412,2.412,0,0,0-.348-1.424,1.188,1.188,0,0,0-1.025-.478,2.09,2.09,0,0,0-.691.111,2.575,2.575,0,0,0-.626.325,2.134,2.134,0,0,0-.431.38q-.162.195-.274.343v4.982a1.39,1.39,0,0,0,.093.543.648.648,0,0,0,.306.329,1.778,1.778,0,0,0,.371.148,2.9,2.9,0,0,0,.436.093V0H56.425V-.677q.232-.019.469-.051a2.266,2.266,0,0,0,.4-.088.682.682,0,0,0,.408-.315,1.2,1.2,0,0,0,.111-.557v-5.4a1.19,1.19,0,0,0-.148-.566,1.327,1.327,0,0,0-.39-.455,1.532,1.532,0,0,0-.422-.186,2.974,2.974,0,0,0-.561-.1v-.677l4.425-.241.139.139V-7.83H60.9q.26-.232.631-.557a6.077,6.077,0,0,1,.687-.529,3.332,3.332,0,0,1,.9-.38A4.338,4.338,0,0,1,64.3-9.454,2.865,2.865,0,0,1,66.57-8.6a3.32,3.32,0,0,1,.756,2.278v4.546a1.234,1.234,0,0,0,.1.547.721.721,0,0,0,.38.325,3.231,3.231,0,0,0,.366.13,2.679,2.679,0,0,0,.5.093ZM80.138-.195a7.008,7.008,0,0,1-.965.325,4.555,4.555,0,0,1-1.178.148A3.235,3.235,0,0,1,76.315-.06a1.7,1.7,0,0,1-.733-.969h-.056a6.084,6.084,0,0,1-.608.538,3.488,3.488,0,0,1-.626.38,4.454,4.454,0,0,1-.84.3,5.056,5.056,0,0,1-1.127.1,2.771,2.771,0,0,1-1.837-.635,2.085,2.085,0,0,1-.761-1.684A2.791,2.791,0,0,1,69.9-3.057a2.324,2.324,0,0,1,.473-.747,2.459,2.459,0,0,1,.645-.492,7.179,7.179,0,0,1,.8-.362q.835-.306,2-.635a11.32,11.32,0,0,0,1.707-.589v-.891q0-.232-.037-.612a1.98,1.98,0,0,0-.158-.64,1.224,1.224,0,0,0-.408-.5,1.211,1.211,0,0,0-.733-.2,1.753,1.753,0,0,0-.682.116,2.281,2.281,0,0,0-.441.237,3.632,3.632,0,0,0,.158.566,2.264,2.264,0,0,1,.13.733,1.234,1.234,0,0,1-.083.394.879.879,0,0,1-.241.376,1.6,1.6,0,0,1-.478.288,2.4,2.4,0,0,1-.812.1,1.659,1.659,0,0,1-1.178-.376,1.283,1.283,0,0,1-.4-.979,1.287,1.287,0,0,1,.413-.932,3.377,3.377,0,0,1,1.007-.682,5.775,5.775,0,0,1,1.345-.431,7.18,7.18,0,0,1,1.41-.153,11.793,11.793,0,0,1,1.651.107,3.9,3.9,0,0,1,1.354.441,2.352,2.352,0,0,1,.914.942,3.335,3.335,0,0,1,.339,1.61q0,1.048-.042,2.486t-.042,1.893a1.443,1.443,0,0,0,.125.659.8.8,0,0,0,.385.362,1.37,1.37,0,0,0,.5.088q.339.014.617.014ZM75.527-5.028q-.52.176-1.03.4a4.11,4.11,0,0,0-.835.478,1.8,1.8,0,0,0-.538.663,2.166,2.166,0,0,0-.195.951,1.425,1.425,0,0,0,.329,1.048,1.111,1.111,0,0,0,.812.325,1.543,1.543,0,0,0,.84-.209,2.417,2.417,0,0,0,.58-.515ZM86.5,0H80.685V-.677q.241-.019.469-.046a1.8,1.8,0,0,0,.4-.093.7.7,0,0,0,.4-.32,1.218,1.218,0,0,0,.107-.552V-11.968a1.5,1.5,0,0,0-.144-.654,1.094,1.094,0,0,0-.385-.459,2.236,2.236,0,0,0-.561-.232,3.073,3.073,0,0,0-.663-.13v-.677l4.667-.241.139.148v12.4a1.125,1.125,0,0,0,.121.557.807.807,0,0,0,.39.334,3.632,3.632,0,0,0,.39.148,2.387,2.387,0,0,0,.482.093ZM98.08,0H92.217V-.677q.241-.019.473-.046a1.648,1.648,0,0,0,.4-.093.769.769,0,0,0,.417-.32,1.1,1.1,0,0,0,.121-.552v-5.4a1.082,1.082,0,0,0-.148-.571,1.228,1.228,0,0,0-.371-.394,1.971,1.971,0,0,0-.506-.213,3.3,3.3,0,0,0-.617-.13v-.677l4.546-.241.139.139v7.366a1.038,1.038,0,0,0,.139.552.843.843,0,0,0,.4.339,3.132,3.132,0,0,0,.408.148,2.8,2.8,0,0,0,.464.093ZM96.726-12.654a1.569,1.569,0,0,1-.543,1.2,1.841,1.841,0,0,1-1.285.5,1.852,1.852,0,0,1-1.294-.5,1.569,1.569,0,0,1-.543-1.2A1.583,1.583,0,0,1,93.6-13.86a1.843,1.843,0,0,1,1.294-.5,1.826,1.826,0,0,1,1.29.5A1.589,1.589,0,0,1,96.726-12.654ZM111.18,0h-5.585V-.677l.427-.046a1.172,1.172,0,0,0,.38-.093.59.59,0,0,0,.278-.3,1.526,1.526,0,0,0,.083-.575V-6.03a2.412,2.412,0,0,0-.348-1.424,1.188,1.188,0,0,0-1.025-.478,2.09,2.09,0,0,0-.691.111,2.575,2.575,0,0,0-.626.325,2.135,2.135,0,0,0-.431.38q-.162.195-.274.343v4.982a1.39,1.39,0,0,0,.093.543.648.648,0,0,0,.306.329,1.778,1.778,0,0,0,.371.148,2.9,2.9,0,0,0,.436.093V0H98.934V-.677q.232-.019.469-.051a2.266,2.266,0,0,0,.4-.088.682.682,0,0,0,.408-.315,1.2,1.2,0,0,0,.111-.557v-5.4a1.19,1.19,0,0,0-.148-.566,1.327,1.327,0,0,0-.39-.455,1.532,1.532,0,0,0-.422-.186,2.974,2.974,0,0,0-.561-.1v-.677l4.425-.241.139.139V-7.83h.037q.26-.232.631-.557a6.077,6.077,0,0,1,.687-.529,3.332,3.332,0,0,1,.9-.38,4.338,4.338,0,0,1,1.188-.158,2.865,2.865,0,0,1,2.268.858,3.32,3.32,0,0,1,.756,2.278v4.546a1.234,1.234,0,0,0,.1.547.721.721,0,0,0,.38.325,3.231,3.231,0,0,0,.366.13,2.679,2.679,0,0,0,.5.093Zm9.639-12.793a1.993,1.993,0,0,1-.074.51,1.184,1.184,0,0,1-.241.473,1.372,1.372,0,0,1-.436.353,1.68,1.68,0,0,1-.724.121,1.405,1.405,0,0,1-1.15-.51,6.777,6.777,0,0,1-.891-1.7,1.28,1.28,0,0,0-.6.816,10.633,10.633,0,0,0-.232,2.83v.733h2.561v1h-2.542v6.392a.85.85,0,0,0,.167.561.965.965,0,0,0,.436.292,4.744,4.744,0,0,0,.584.144q.362.07.649.1V0h-6.262V-.677q.241-.019.469-.046a1.8,1.8,0,0,0,.4-.093.7.7,0,0,0,.4-.32,1.218,1.218,0,0,0,.107-.552V-8.164H111.56v-1h1.883a6.494,6.494,0,0,1,.288-1.925,4.837,4.837,0,0,1,.891-1.665,4.242,4.242,0,0,1,1.54-1.169,5.269,5.269,0,0,1,2.245-.445,3.107,3.107,0,0,1,1.781.436A1.33,1.33,0,0,1,120.819-12.793Zm8.164,4.685a4.255,4.255,0,0,1,1.048,1.531,5.078,5.078,0,0,1,.362,1.93,5.291,5.291,0,0,1-.357,1.944,4.251,4.251,0,0,1-1.044,1.563,4.994,4.994,0,0,1-1.749,1.067A6.749,6.749,0,0,1,124.919.3a6.409,6.409,0,0,1-2.083-.325A4.9,4.9,0,0,1,121.153-1a4.417,4.417,0,0,1-1.113-1.535,4.962,4.962,0,0,1-.408-2.046,5.165,5.165,0,0,1,.357-1.981,4.447,4.447,0,0,1,1.072-1.545,4.724,4.724,0,0,1,1.693-1.007A6.694,6.694,0,0,1,125-9.472a6.713,6.713,0,0,1,2.287.357A4.948,4.948,0,0,1,128.983-8.108Zm-2.375,6.429a5.4,5.4,0,0,0,.3-1.262,13.425,13.425,0,0,0,.1-1.726,13.6,13.6,0,0,0-.093-1.484,5.48,5.48,0,0,0-.278-1.317,2.2,2.2,0,0,0-.617-.918,1.489,1.489,0,0,0-1-.334,1.5,1.5,0,0,0-1.053.362,2.358,2.358,0,0,0-.608.937,5.141,5.141,0,0,0-.269,1.239,14.232,14.232,0,0,0-.074,1.48q0,1.011.065,1.675A5.236,5.236,0,0,0,123.4-1.7a2.114,2.114,0,0,0,.612.909,1.522,1.522,0,0,0,1.011.334,1.508,1.508,0,0,0,.956-.311A2.061,2.061,0,0,0,126.608-1.679ZM140.83-7.505a1.9,1.9,0,0,1-.436,1.239,1.413,1.413,0,0,1-1.15.533,1.886,1.886,0,0,1-1.146-.343,1.174,1.174,0,0,1-.469-1.011,2.139,2.139,0,0,1,.046-.506q.046-.181.083-.339a1.955,1.955,0,0,0-.9.3,2.96,2.96,0,0,0-.835.742V-1.8a1.246,1.246,0,0,0,.1.538.721.721,0,0,0,.343.334,2.4,2.4,0,0,0,.663.172q.459.07.663.079V0H131.59V-.677q.232-.019.469-.051a2.266,2.266,0,0,0,.4-.088.682.682,0,0,0,.408-.315,1.2,1.2,0,0,0,.111-.557v-5.4a1.145,1.145,0,0,0-.158-.6,1.363,1.363,0,0,0-.38-.422,1.532,1.532,0,0,0-.422-.186,2.974,2.974,0,0,0-.561-.1v-.677l4.425-.241.139.139V-7.83h.037a5.468,5.468,0,0,1,1.359-1.164,2.918,2.918,0,0,1,1.5-.422,1.857,1.857,0,0,1,1.387.533A1.882,1.882,0,0,1,140.83-7.505ZM159.9,0h-5.529V-.677q.2-.028.427-.046a1.019,1.019,0,0,0,.371-.093.447.447,0,0,0,.26-.311,2.33,2.33,0,0,0,.056-.561V-6.021a2.482,2.482,0,0,0-.339-1.433,1.116,1.116,0,0,0-.969-.478,1.887,1.887,0,0,0-.71.125,2.737,2.737,0,0,0-.571.311,1.98,1.98,0,0,0-.417.39q-.148.195-.25.334v4.982a1.562,1.562,0,0,0,.079.543.629.629,0,0,0,.292.329,2.026,2.026,0,0,0,.339.148,2.077,2.077,0,0,0,.4.093V0h-5.3V-.677l.427-.046a1.067,1.067,0,0,0,.371-.093.492.492,0,0,0,.255-.3,2.069,2.069,0,0,0,.06-.575V-6.021a2.482,2.482,0,0,0-.339-1.433,1.116,1.116,0,0,0-.969-.478,1.887,1.887,0,0,0-.71.125,2.737,2.737,0,0,0-.571.311,1.98,1.98,0,0,0-.417.39q-.148.195-.25.334v4.982a1.49,1.49,0,0,0,.083.538.649.649,0,0,0,.3.334,2.026,2.026,0,0,0,.339.148,2.077,2.077,0,0,0,.4.093V0H141.47V-.677q.241-.019.473-.046a1.648,1.648,0,0,0,.4-.093.723.723,0,0,0,.408-.32,1.174,1.174,0,0,0,.111-.552v-5.4a1.177,1.177,0,0,0-.158-.58,1.307,1.307,0,0,0-.38-.441,1.532,1.532,0,0,0-.422-.186,2.974,2.974,0,0,0-.561-.1v-.677l4.425-.241.139.139v1.308h.037l.617-.552a4.832,4.832,0,0,1,.673-.515,3.174,3.174,0,0,1,.881-.371,4.421,4.421,0,0,1,1.178-.148,3.189,3.189,0,0,1,1.767.459,2.515,2.515,0,0,1,1.007,1.22h.083q.269-.25.659-.589a5.909,5.909,0,0,1,.714-.543,3.437,3.437,0,0,1,.923-.39,4.424,4.424,0,0,1,1.2-.158,2.777,2.777,0,0,1,2.157.826,3.352,3.352,0,0,1,.756,2.347v4.509a1.265,1.265,0,0,0,.1.552.677.677,0,0,0,.371.32,3.231,3.231,0,0,0,.366.13,2.69,2.69,0,0,0,.506.093Zm11.467-.195a7.009,7.009,0,0,1-.965.325,4.556,4.556,0,0,1-1.178.148,3.235,3.235,0,0,1-1.679-.339,1.7,1.7,0,0,1-.733-.969h-.056a6.083,6.083,0,0,1-.608.538,3.488,3.488,0,0,1-.626.38,4.454,4.454,0,0,1-.84.3,5.056,5.056,0,0,1-1.127.1,2.771,2.771,0,0,1-1.837-.635,2.085,2.085,0,0,1-.761-1.684,2.791,2.791,0,0,1,.167-1.025A2.324,2.324,0,0,1,161.6-3.8a2.459,2.459,0,0,1,.645-.492,7.179,7.179,0,0,1,.8-.362q.835-.306,2-.635a11.32,11.32,0,0,0,1.707-.589v-.891q0-.232-.037-.612a1.98,1.98,0,0,0-.158-.64,1.224,1.224,0,0,0-.408-.5,1.211,1.211,0,0,0-.733-.2,1.753,1.753,0,0,0-.682.116,2.281,2.281,0,0,0-.441.237,3.631,3.631,0,0,0,.158.566,2.264,2.264,0,0,1,.13.733,1.234,1.234,0,0,1-.083.394.879.879,0,0,1-.241.376,1.6,1.6,0,0,1-.478.288,2.4,2.4,0,0,1-.812.1,1.659,1.659,0,0,1-1.178-.376,1.283,1.283,0,0,1-.4-.979,1.287,1.287,0,0,1,.413-.932,3.377,3.377,0,0,1,1.007-.682,5.775,5.775,0,0,1,1.345-.431,7.18,7.18,0,0,1,1.41-.153,11.793,11.793,0,0,1,1.651.107,3.9,3.9,0,0,1,1.354.441,2.352,2.352,0,0,1,.914.942,3.334,3.334,0,0,1,.339,1.61q0,1.048-.042,2.486t-.042,1.893a1.443,1.443,0,0,0,.125.659.8.8,0,0,0,.385.362,1.37,1.37,0,0,0,.5.088q.339.014.617.014ZM166.76-5.028q-.52.176-1.03.4a4.111,4.111,0,0,0-.835.478,1.8,1.8,0,0,0-.538.663,2.166,2.166,0,0,0-.195.951,1.425,1.425,0,0,0,.329,1.048,1.111,1.111,0,0,0,.812.325,1.543,1.543,0,0,0,.84-.209,2.417,2.417,0,0,0,.58-.515Zm12.228,4.6a11.957,11.957,0,0,1-1.271.469,5.664,5.664,0,0,1-1.651.209,2.912,2.912,0,0,1-2.148-.705,2.735,2.735,0,0,1-.7-2.013v-5.7h-1.67v-1h1.707v-2.811h3.015v2.811h2.6v1h-2.579V-3.08a2.913,2.913,0,0,0,.3,1.54,1.2,1.2,0,0,0,1.081.455q.25,0,.7-.037a4.18,4.18,0,0,0,.622-.083ZM185.5,0h-5.863V-.677q.241-.019.473-.046a1.648,1.648,0,0,0,.4-.093.769.769,0,0,0,.417-.32,1.1,1.1,0,0,0,.121-.552v-5.4a1.082,1.082,0,0,0-.148-.571,1.228,1.228,0,0,0-.371-.394,1.97,1.97,0,0,0-.506-.213,3.3,3.3,0,0,0-.617-.13v-.677l4.546-.241.139.139v7.366a1.038,1.038,0,0,0,.139.552.843.843,0,0,0,.4.339,3.133,3.133,0,0,0,.408.148,2.8,2.8,0,0,0,.464.093Zm-1.354-12.654a1.569,1.569,0,0,1-.543,1.2,1.84,1.84,0,0,1-1.285.5,1.852,1.852,0,0,1-1.294-.5,1.569,1.569,0,0,1-.543-1.2,1.583,1.583,0,0,1,.543-1.206,1.843,1.843,0,0,1,1.294-.5,1.826,1.826,0,0,1,1.29.5A1.589,1.589,0,0,1,184.146-12.654Zm11.68,4.546a4.255,4.255,0,0,1,1.048,1.531,5.078,5.078,0,0,1,.362,1.93,5.291,5.291,0,0,1-.357,1.944,4.251,4.251,0,0,1-1.044,1.563,4.994,4.994,0,0,1-1.749,1.067A6.749,6.749,0,0,1,191.763.3a6.409,6.409,0,0,1-2.083-.325A4.9,4.9,0,0,1,188-1a4.417,4.417,0,0,1-1.113-1.535,4.962,4.962,0,0,1-.408-2.046,5.165,5.165,0,0,1,.357-1.981A4.447,4.447,0,0,1,187.9-8.108,4.724,4.724,0,0,1,189.6-9.115a6.694,6.694,0,0,1,2.25-.357,6.713,6.713,0,0,1,2.287.357A4.948,4.948,0,0,1,195.826-8.108Zm-2.375,6.429a5.4,5.4,0,0,0,.3-1.262,13.425,13.425,0,0,0,.1-1.726,13.606,13.606,0,0,0-.093-1.484,5.479,5.479,0,0,0-.278-1.317,2.2,2.2,0,0,0-.617-.918,1.489,1.489,0,0,0-1-.334,1.5,1.5,0,0,0-1.053.362,2.358,2.358,0,0,0-.608.937,5.142,5.142,0,0,0-.269,1.239,14.23,14.23,0,0,0-.074,1.48q0,1.011.065,1.675a5.235,5.235,0,0,0,.315,1.331,2.114,2.114,0,0,0,.612.909,1.522,1.522,0,0,0,1.011.334,1.508,1.508,0,0,0,.956-.311A2.061,2.061,0,0,0,193.451-1.679ZM210.679,0h-5.585V-.677l.427-.046a1.172,1.172,0,0,0,.38-.093.59.59,0,0,0,.278-.3,1.526,1.526,0,0,0,.083-.575V-6.03a2.412,2.412,0,0,0-.348-1.424,1.188,1.188,0,0,0-1.025-.478,2.09,2.09,0,0,0-.691.111,2.575,2.575,0,0,0-.626.325,2.134,2.134,0,0,0-.431.38q-.162.195-.274.343v4.982a1.39,1.39,0,0,0,.093.543.648.648,0,0,0,.306.329,1.778,1.778,0,0,0,.371.148,2.9,2.9,0,0,0,.436.093V0h-5.641V-.677q.232-.019.469-.051a2.266,2.266,0,0,0,.4-.088.682.682,0,0,0,.408-.315,1.2,1.2,0,0,0,.111-.557v-5.4a1.19,1.19,0,0,0-.148-.566,1.326,1.326,0,0,0-.39-.455,1.532,1.532,0,0,0-.422-.186,2.974,2.974,0,0,0-.561-.1v-.677l4.425-.241.139.139V-7.83h.037q.26-.232.631-.557a6.077,6.077,0,0,1,.687-.529,3.332,3.332,0,0,1,.9-.38,4.338,4.338,0,0,1,1.188-.158,2.865,2.865,0,0,1,2.268.858,3.32,3.32,0,0,1,.756,2.278v4.546a1.234,1.234,0,0,0,.1.547.721.721,0,0,0,.38.325,3.231,3.231,0,0,0,.366.13,2.679,2.679,0,0,0,.5.093Z" transform="translate(754 423)"/>
    <path id="Pfad_1091" data-name="Pfad 1091" class="cls-2" d="M6.16.353a8.193,8.193,0,0,1-2.25-.3A8.145,8.145,0,0,1,2.143-.649L1.5,0H.714L.594-4.759h.8a12.351,12.351,0,0,0,.687,1.429,6.962,6.962,0,0,0,.965,1.345A4.984,4.984,0,0,0,4.309-.974a3.314,3.314,0,0,0,1.637.39A2.763,2.763,0,0,0,7.881-1.2a2.019,2.019,0,0,0,.673-1.554A1.688,1.688,0,0,0,7.983-4.05a4.748,4.748,0,0,0-1.767-.9q-.779-.25-1.433-.464T3.553-5.854A4.065,4.065,0,0,1,1.582-7.366a3.923,3.923,0,0,1-.645-2.2,3.436,3.436,0,0,1,.334-1.48,3.936,3.936,0,0,1,.974-1.276,4.79,4.79,0,0,1,1.568-.863,6.258,6.258,0,0,1,2.078-.334,6.777,6.777,0,0,1,2.05.3,8.26,8.26,0,0,1,1.5.608l.566-.557h.807l.074,4.49h-.8q-.278-.724-.654-1.48a6.438,6.438,0,0,0-.793-1.257A3.6,3.6,0,0,0,7.6-12.269a2.89,2.89,0,0,0-1.392-.32,2.37,2.37,0,0,0-1.637.566,1.8,1.8,0,0,0-.635,1.4,1.662,1.662,0,0,0,.552,1.29,4.782,4.782,0,0,0,1.721.881q.687.232,1.4.464t1.271.445a4.573,4.573,0,0,1,2.046,1.433,3.619,3.619,0,0,1,.7,2.268,3.65,3.65,0,0,1-.4,1.651A3.831,3.831,0,0,1,10.149-.863a5.468,5.468,0,0,1-1.716.9A7.391,7.391,0,0,1,6.16.353ZM22.34-8.108a4.255,4.255,0,0,1,1.048,1.531,5.078,5.078,0,0,1,.362,1.93A5.291,5.291,0,0,1,23.393-2.7a4.251,4.251,0,0,1-1.044,1.563A4.994,4.994,0,0,1,20.6-.074,6.749,6.749,0,0,1,18.276.3a6.409,6.409,0,0,1-2.083-.325A4.9,4.9,0,0,1,14.51-1,4.417,4.417,0,0,1,13.4-2.537a4.962,4.962,0,0,1-.408-2.046,5.165,5.165,0,0,1,.357-1.981,4.447,4.447,0,0,1,1.072-1.545A4.724,4.724,0,0,1,16.11-9.115a6.694,6.694,0,0,1,2.25-.357,6.713,6.713,0,0,1,2.287.357A4.948,4.948,0,0,1,22.34-8.108ZM19.965-1.679a5.4,5.4,0,0,0,.3-1.262,13.425,13.425,0,0,0,.1-1.726,13.6,13.6,0,0,0-.093-1.484,5.479,5.479,0,0,0-.278-1.317,2.2,2.2,0,0,0-.617-.918,1.489,1.489,0,0,0-1-.334,1.5,1.5,0,0,0-1.053.362,2.358,2.358,0,0,0-.608.937,5.141,5.141,0,0,0-.269,1.239,14.232,14.232,0,0,0-.074,1.48q0,1.011.065,1.675A5.236,5.236,0,0,0,16.755-1.7a2.114,2.114,0,0,0,.612.909,1.522,1.522,0,0,0,1.011.334,1.508,1.508,0,0,0,.956-.311A2.061,2.061,0,0,0,19.965-1.679ZM30.244.3a6.383,6.383,0,0,1-2.278-.376A4.485,4.485,0,0,1,26.338-1.1a4.2,4.2,0,0,1-.956-1.559,5.879,5.879,0,0,1-.315-1.958,4.5,4.5,0,0,1,.385-1.837A5,5,0,0,1,26.5-7.988,4.95,4.95,0,0,1,28.18-9.069a5.92,5.92,0,0,1,2.222-.4,4.911,4.911,0,0,1,2.7.645,1.983,1.983,0,0,1,.993,1.74,1.588,1.588,0,0,1-.353,1.076,1.539,1.539,0,0,1-1.215.408,1.955,1.955,0,0,1-1.164-.334,1.025,1.025,0,0,1-.469-.872,2.829,2.829,0,0,1,.148-.9,3.785,3.785,0,0,0,.176-.677.707.707,0,0,0-.26-.255,1.048,1.048,0,0,0-.492-.088,1.514,1.514,0,0,0-.761.195,1.876,1.876,0,0,0-.64.687,4.017,4.017,0,0,0-.459,1.243,8.837,8.837,0,0,0-.172,1.874,4.262,4.262,0,0,0,.775,2.663,2.279,2.279,0,0,0,1.851,1.011A2.653,2.653,0,0,0,32.7-1.517a4.132,4.132,0,0,0,1.081-1.3l.7.482A5.274,5.274,0,0,1,33.788-1.3a4.377,4.377,0,0,1-.956.83A4.991,4.991,0,0,1,31.645.1,4.562,4.562,0,0,1,30.244.3ZM40.9,0H35.041V-.677q.241-.019.473-.046a1.648,1.648,0,0,0,.4-.093.769.769,0,0,0,.417-.32,1.1,1.1,0,0,0,.121-.552v-5.4a1.082,1.082,0,0,0-.148-.571,1.228,1.228,0,0,0-.371-.394,1.971,1.971,0,0,0-.506-.213,3.3,3.3,0,0,0-.617-.13v-.677l4.546-.241.139.139v7.366a1.038,1.038,0,0,0,.139.552.843.843,0,0,0,.4.339,3.132,3.132,0,0,0,.408.148,2.8,2.8,0,0,0,.464.093ZM39.549-12.654a1.569,1.569,0,0,1-.543,1.2,1.841,1.841,0,0,1-1.285.5,1.852,1.852,0,0,1-1.294-.5,1.569,1.569,0,0,1-.543-1.2,1.583,1.583,0,0,1,.543-1.206,1.843,1.843,0,0,1,1.294-.5,1.826,1.826,0,0,1,1.29.5A1.589,1.589,0,0,1,39.549-12.654ZM52.361-.195A7.009,7.009,0,0,1,51.4.13a4.555,4.555,0,0,1-1.178.148A3.235,3.235,0,0,1,48.539-.06a1.7,1.7,0,0,1-.733-.969H47.75a6.083,6.083,0,0,1-.608.538,3.488,3.488,0,0,1-.626.38,4.454,4.454,0,0,1-.84.3,5.056,5.056,0,0,1-1.127.1,2.771,2.771,0,0,1-1.837-.635,2.085,2.085,0,0,1-.761-1.684,2.791,2.791,0,0,1,.167-1.025,2.324,2.324,0,0,1,.473-.747,2.459,2.459,0,0,1,.645-.492,7.179,7.179,0,0,1,.8-.362q.835-.306,2-.635a11.32,11.32,0,0,0,1.707-.589v-.891q0-.232-.037-.612a1.98,1.98,0,0,0-.158-.64,1.224,1.224,0,0,0-.408-.5,1.211,1.211,0,0,0-.733-.2,1.753,1.753,0,0,0-.682.116,2.281,2.281,0,0,0-.441.237,3.632,3.632,0,0,0,.158.566,2.264,2.264,0,0,1,.13.733,1.234,1.234,0,0,1-.083.394.879.879,0,0,1-.241.376,1.6,1.6,0,0,1-.478.288,2.4,2.4,0,0,1-.812.1,1.659,1.659,0,0,1-1.178-.376,1.283,1.283,0,0,1-.4-.979,1.287,1.287,0,0,1,.413-.932,3.377,3.377,0,0,1,1.007-.682,5.775,5.775,0,0,1,1.345-.431,7.18,7.18,0,0,1,1.41-.153,11.793,11.793,0,0,1,1.651.107,3.9,3.9,0,0,1,1.354.441,2.352,2.352,0,0,1,.914.942,3.335,3.335,0,0,1,.339,1.61q0,1.048-.042,2.486t-.042,1.893a1.443,1.443,0,0,0,.125.659.8.8,0,0,0,.385.362,1.37,1.37,0,0,0,.5.088q.339.014.617.014ZM47.75-5.028q-.52.176-1.03.4a4.11,4.11,0,0,0-.835.478,1.8,1.8,0,0,0-.538.663,2.166,2.166,0,0,0-.195.951,1.425,1.425,0,0,0,.329,1.048,1.111,1.111,0,0,0,.812.325,1.543,1.543,0,0,0,.84-.209,2.417,2.417,0,0,0,.58-.515ZM58.726,0H52.909V-.677q.241-.019.469-.046a1.8,1.8,0,0,0,.4-.093.7.7,0,0,0,.4-.32,1.218,1.218,0,0,0,.107-.552V-11.968a1.5,1.5,0,0,0-.144-.654,1.094,1.094,0,0,0-.385-.459,2.236,2.236,0,0,0-.561-.232,3.074,3.074,0,0,0-.663-.13v-.677l4.667-.241.139.148v12.4a1.125,1.125,0,0,0,.121.557.807.807,0,0,0,.39.334,3.633,3.633,0,0,0,.39.148,2.387,2.387,0,0,0,.482.093ZM76.687,0H71.1V-.677l.427-.046a1.172,1.172,0,0,0,.38-.093.59.59,0,0,0,.278-.3,1.526,1.526,0,0,0,.083-.575V-6.03a2.412,2.412,0,0,0-.348-1.424A1.188,1.188,0,0,0,70.9-7.932a2.09,2.09,0,0,0-.691.111,2.575,2.575,0,0,0-.626.325,2.135,2.135,0,0,0-.431.38q-.162.195-.274.343v4.982a1.39,1.39,0,0,0,.093.543.648.648,0,0,0,.306.329,1.778,1.778,0,0,0,.371.148,2.9,2.9,0,0,0,.436.093V0H64.44V-.677q.232-.019.469-.051a2.266,2.266,0,0,0,.4-.088.682.682,0,0,0,.408-.315,1.2,1.2,0,0,0,.111-.557v-5.4a1.19,1.19,0,0,0-.148-.566,1.327,1.327,0,0,0-.39-.455,1.532,1.532,0,0,0-.422-.186,2.974,2.974,0,0,0-.561-.1v-.677l4.425-.241.139.139V-7.83h.037q.26-.232.631-.557a6.077,6.077,0,0,1,.687-.529,3.332,3.332,0,0,1,.9-.38,4.338,4.338,0,0,1,1.188-.158,2.865,2.865,0,0,1,2.268.858,3.32,3.32,0,0,1,.756,2.278v4.546a1.234,1.234,0,0,0,.1.547.721.721,0,0,0,.38.325,3.231,3.231,0,0,0,.366.13,2.679,2.679,0,0,0,.5.093ZM87.522-2.217a5.642,5.642,0,0,1-.784,1,4.759,4.759,0,0,1-1.044.8,5.723,5.723,0,0,1-1.257.533A5.35,5.35,0,0,1,82.977.3a6.507,6.507,0,0,1-2.37-.39,4.65,4.65,0,0,1-1.647-1.048A4.2,4.2,0,0,1,77.99-2.7a5.733,5.733,0,0,1-.32-1.944,4.828,4.828,0,0,1,.348-1.814A4.865,4.865,0,0,1,79.006-8,4.73,4.73,0,0,1,80.6-9.064a5.438,5.438,0,0,1,2.148-.408,6.116,6.116,0,0,1,2.134.315,3.777,3.777,0,0,1,1.382.872,3.162,3.162,0,0,1,.77,1.248,4.708,4.708,0,0,1,.241,1.508v.6H81a4.828,4.828,0,0,0,.733,2.895,2.7,2.7,0,0,0,2.329.993,2.705,2.705,0,0,0,1.568-.478,4.473,4.473,0,0,0,1.188-1.211ZM83.979-5.743q0-.557-.056-1.141a3.8,3.8,0,0,0-.195-.956A1.468,1.468,0,0,0,83.3-8.5a1.06,1.06,0,0,0-.691-.223A1.286,1.286,0,0,0,81.464-8,4.919,4.919,0,0,0,81-5.706ZM95.315-.427a11.957,11.957,0,0,1-1.271.469A5.664,5.664,0,0,1,92.393.25a2.912,2.912,0,0,1-2.148-.705,2.735,2.735,0,0,1-.7-2.013v-5.7h-1.67v-1h1.707v-2.811H92.6v2.811h2.6v1H92.616V-3.08a2.913,2.913,0,0,0,.3,1.54A1.2,1.2,0,0,0,94-1.085q.25,0,.7-.037a4.18,4.18,0,0,0,.622-.083Zm16.644-8.1a2.135,2.135,0,0,0-.789.283,1.659,1.659,0,0,0-.612.812q-.649,1.586-1.039,2.561T108.424-2.06q-.148.38-.357,1.048T107.738.083h-1.809l-2.338-6.309L101.4.083H99.611q-.937-2.533-1.475-3.929T96.7-7.533a1.363,1.363,0,0,0-.571-.687,2.075,2.075,0,0,0-.83-.306V-9.2h5.7v.677a4.311,4.311,0,0,0-.751.148q-.436.121-.436.325a.514.514,0,0,0,.023.162q.023.07.079.255.25.724.687,1.869T101.615-3.1l2.06-6.1h1.837l2.347,6.309q.538-1.429.83-2.25t.738-2.12a1.566,1.566,0,0,0,.079-.348.9.9,0,0,0,0-.2.385.385,0,0,0-.167-.3,1.369,1.369,0,0,0-.4-.218,3.451,3.451,0,0,0-.45-.13q-.218-.046-.366-.065V-9.2h3.832Zm9.88.417a4.255,4.255,0,0,1,1.048,1.531,5.078,5.078,0,0,1,.362,1.93,5.291,5.291,0,0,1-.357,1.944,4.251,4.251,0,0,1-1.044,1.563A4.994,4.994,0,0,1,120.1-.074,6.749,6.749,0,0,1,117.776.3a6.409,6.409,0,0,1-2.083-.325A4.9,4.9,0,0,1,114.009-1,4.417,4.417,0,0,1,112.9-2.537a4.962,4.962,0,0,1-.408-2.046,5.165,5.165,0,0,1,.357-1.981,4.447,4.447,0,0,1,1.072-1.545,4.724,4.724,0,0,1,1.693-1.007,6.694,6.694,0,0,1,2.25-.357,6.713,6.713,0,0,1,2.287.357A4.948,4.948,0,0,1,121.839-8.108Zm-2.375,6.429a5.4,5.4,0,0,0,.3-1.262,13.425,13.425,0,0,0,.1-1.726,13.6,13.6,0,0,0-.093-1.484,5.48,5.48,0,0,0-.278-1.317,2.2,2.2,0,0,0-.617-.918,1.489,1.489,0,0,0-1-.334,1.5,1.5,0,0,0-1.053.362,2.358,2.358,0,0,0-.608.937,5.141,5.141,0,0,0-.269,1.239,14.232,14.232,0,0,0-.074,1.48q0,1.011.065,1.675a5.236,5.236,0,0,0,.315,1.331,2.114,2.114,0,0,0,.612.909,1.522,1.522,0,0,0,1.011.334,1.508,1.508,0,0,0,.956-.311A2.061,2.061,0,0,0,119.464-1.679Zm14.222-5.826a1.9,1.9,0,0,1-.436,1.239,1.413,1.413,0,0,1-1.15.533,1.886,1.886,0,0,1-1.146-.343,1.174,1.174,0,0,1-.469-1.011,2.139,2.139,0,0,1,.046-.506q.046-.181.083-.339a1.955,1.955,0,0,0-.9.3,2.96,2.96,0,0,0-.835.742V-1.8a1.246,1.246,0,0,0,.1.538.721.721,0,0,0,.343.334,2.4,2.4,0,0,0,.663.172q.459.07.663.079V0h-6.207V-.677q.232-.019.469-.051a2.266,2.266,0,0,0,.4-.088.682.682,0,0,0,.408-.315,1.2,1.2,0,0,0,.111-.557v-5.4a1.146,1.146,0,0,0-.158-.6,1.363,1.363,0,0,0-.38-.422,1.532,1.532,0,0,0-.422-.186,2.974,2.974,0,0,0-.561-.1v-.677l4.425-.241.139.139V-7.83h.037a5.468,5.468,0,0,1,1.359-1.164,2.918,2.918,0,0,1,1.5-.422,1.857,1.857,0,0,1,1.387.533A1.882,1.882,0,0,1,133.687-7.505ZM146.229,0h-4.37q-.807-1.419-1.475-2.407T139.123-4.24l-.557.473v2.022a1.324,1.324,0,0,0,.1.547.62.62,0,0,0,.376.315,2.393,2.393,0,0,0,.39.13,2.788,2.788,0,0,0,.445.074V0h-5.743V-.677q.232-.019.464-.051A2.529,2.529,0,0,0,135-.816a.662.662,0,0,0,.4-.315,1.248,1.248,0,0,0,.107-.557V-12.033a1.677,1.677,0,0,0-.135-.635,1.033,1.033,0,0,0-.394-.5,1.662,1.662,0,0,0-.529-.186,4.562,4.562,0,0,0-.64-.093v-.677l4.611-.241.139.148v9.574q.687-.612,1.545-1.419t1.378-1.336a1.217,1.217,0,0,0,.339-.478,1.539,1.539,0,0,0,.032-.2q0-.167-.292-.278a4.357,4.357,0,0,0-.877-.195V-9.2H145.4v.64a9.742,9.742,0,0,0-1.415.487,8.382,8.382,0,0,0-1.062.608q-.38.25-.738.524t-.821.682q.909,1.317,1.679,2.44t1.614,2.375a1.408,1.408,0,0,0,.714.584,3.519,3.519,0,0,0,.854.186Z" transform="translate(280 541)"/>
    <path id="Pfad_1087" data-name="Pfad 1087" class="cls-2" d="M7.542.353A7.72,7.72,0,0,1,4.833-.116a6.372,6.372,0,0,1-2.2-1.359A6.16,6.16,0,0,1,1.188-3.632,7.353,7.353,0,0,1,.659-6.457a7.411,7.411,0,0,1,.533-2.834,6.727,6.727,0,0,1,1.5-2.259A6.557,6.557,0,0,1,4.963-13,7.777,7.777,0,0,1,7.8-13.517a7.061,7.061,0,0,1,1.995.264,8,8,0,0,1,1.521.6l.575-.51H12.7l.083,4.806h-.816a8.392,8.392,0,0,0-1.67-3.229,3.145,3.145,0,0,0-2.375-1.03A2.908,2.908,0,0,0,5.27-11.082,8.5,8.5,0,0,0,4.36-6.772,10.021,10.021,0,0,0,4.671-4.1,5.481,5.481,0,0,0,5.483-2.31,3.29,3.29,0,0,0,6.754-1.276a3.916,3.916,0,0,0,1.624.329,3.962,3.962,0,0,0,2.315-.705,6.571,6.571,0,0,0,1.851-2.134l.8.482a8.014,8.014,0,0,1-.909,1.461A5.486,5.486,0,0,1,11.253-.733a6.124,6.124,0,0,1-1.619.8A6.8,6.8,0,0,1,7.542.353ZM23.37-7.505a1.9,1.9,0,0,1-.436,1.239,1.413,1.413,0,0,1-1.15.533,1.886,1.886,0,0,1-1.146-.343,1.174,1.174,0,0,1-.469-1.011,2.14,2.14,0,0,1,.046-.506q.046-.181.083-.339a1.955,1.955,0,0,0-.9.3,2.96,2.96,0,0,0-.835.742V-1.8a1.246,1.246,0,0,0,.1.538.721.721,0,0,0,.343.334,2.4,2.4,0,0,0,.663.172q.459.07.663.079V0H14.129V-.677q.232-.019.469-.051A2.266,2.266,0,0,0,15-.816a.682.682,0,0,0,.408-.315,1.2,1.2,0,0,0,.111-.557v-5.4a1.145,1.145,0,0,0-.158-.6,1.363,1.363,0,0,0-.38-.422,1.532,1.532,0,0,0-.422-.186A2.974,2.974,0,0,0,14-8.4v-.677l4.425-.241.139.139V-7.83H18.6A5.468,5.468,0,0,1,19.96-8.994a2.918,2.918,0,0,1,1.5-.422,1.857,1.857,0,0,1,1.387.533A1.882,1.882,0,0,1,23.37-7.505ZM33.983-2.217a5.642,5.642,0,0,1-.784,1,4.759,4.759,0,0,1-1.044.8A5.723,5.723,0,0,1,30.9.116,5.35,5.35,0,0,1,29.437.3a6.507,6.507,0,0,1-2.37-.39A4.65,4.65,0,0,1,25.42-1.141,4.2,4.2,0,0,1,24.45-2.7a5.733,5.733,0,0,1-.32-1.944,4.828,4.828,0,0,1,.348-1.814A4.865,4.865,0,0,1,25.466-8a4.73,4.73,0,0,1,1.591-1.067,5.438,5.438,0,0,1,2.148-.408,6.116,6.116,0,0,1,2.134.315,3.777,3.777,0,0,1,1.382.872,3.162,3.162,0,0,1,.77,1.248,4.708,4.708,0,0,1,.241,1.508v.6H27.461a4.829,4.829,0,0,0,.733,2.895,2.7,2.7,0,0,0,2.329.993,2.705,2.705,0,0,0,1.568-.478,4.473,4.473,0,0,0,1.188-1.211ZM30.439-5.743q0-.557-.056-1.141a3.8,3.8,0,0,0-.195-.956,1.468,1.468,0,0,0-.431-.659,1.06,1.06,0,0,0-.691-.223A1.286,1.286,0,0,0,27.925-8a4.919,4.919,0,0,0-.464,2.292ZM46.869-.195,42.3.074l-.139-.13V-.909l-.065-.019a3.951,3.951,0,0,1-1.229.858A3.624,3.624,0,0,1,39.3.3a3.921,3.921,0,0,1-3.089-1.392,5.273,5.273,0,0,1-1.215-3.6,4.652,4.652,0,0,1,1.359-3.358,4.414,4.414,0,0,1,3.289-1.4,5.724,5.724,0,0,1,1.429.172,4.267,4.267,0,0,1,1.067.4v-3.034A1.52,1.52,0,0,0,42-12.557a1.161,1.161,0,0,0-.371-.469,1.878,1.878,0,0,0-.719-.292,7.513,7.513,0,0,0-.867-.125v-.677l5.01-.241.139.148V-2.05a1.364,1.364,0,0,0,.116.594.843.843,0,0,0,.376.38,1.728,1.728,0,0,0,.571.148q.376.046.617.056ZM42.138-1.846V-7.088a4.114,4.114,0,0,0-.181-.473,1.943,1.943,0,0,0-.32-.492,1.672,1.672,0,0,0-.5-.343,1.605,1.605,0,0,0-.7-.148A1.743,1.743,0,0,0,38.918-7.5a6.067,6.067,0,0,0-.594,2.959,7.735,7.735,0,0,0,.107,1.35,3.553,3.553,0,0,0,.376,1.09,2.118,2.118,0,0,0,.691.77,1.8,1.8,0,0,0,1.016.278,1.827,1.827,0,0,0,.937-.218A2.786,2.786,0,0,0,42.138-1.846ZM53.335,0H47.472V-.677q.241-.019.473-.046a1.648,1.648,0,0,0,.4-.093.769.769,0,0,0,.417-.32,1.1,1.1,0,0,0,.121-.552v-5.4a1.082,1.082,0,0,0-.148-.571,1.228,1.228,0,0,0-.371-.394,1.971,1.971,0,0,0-.506-.213,3.3,3.3,0,0,0-.617-.13v-.677l4.546-.241.139.139v7.366a1.038,1.038,0,0,0,.139.552.843.843,0,0,0,.4.339,3.132,3.132,0,0,0,.408.148,2.8,2.8,0,0,0,.464.093ZM51.981-12.654a1.569,1.569,0,0,1-.543,1.2,1.841,1.841,0,0,1-1.285.5,1.852,1.852,0,0,1-1.294-.5,1.569,1.569,0,0,1-.543-1.2,1.583,1.583,0,0,1,.543-1.206,1.843,1.843,0,0,1,1.294-.5,1.826,1.826,0,0,1,1.29.5A1.589,1.589,0,0,1,51.981-12.654ZM61.091-.427A11.957,11.957,0,0,1,59.82.042,5.664,5.664,0,0,1,58.169.25a2.912,2.912,0,0,1-2.148-.705,2.735,2.735,0,0,1-.7-2.013v-5.7h-1.67v-1h1.707v-2.811h3.015v2.811h2.6v1H58.392V-3.08a2.913,2.913,0,0,0,.3,1.54,1.2,1.2,0,0,0,1.081.455q.25,0,.7-.037a4.18,4.18,0,0,0,.622-.083ZM78.625,0H73.041V-.677l.436-.046a1.067,1.067,0,0,0,.371-.093.569.569,0,0,0,.274-.3,1.608,1.608,0,0,0,.079-.575V-6.03a2.36,2.36,0,0,0-.357-1.429,1.2,1.2,0,0,0-1.016-.473,2.09,2.09,0,0,0-.691.111,2.575,2.575,0,0,0-.626.325,2.135,2.135,0,0,0-.431.38q-.162.195-.274.343v4.982a1.438,1.438,0,0,0,.083.543.687.687,0,0,0,.315.329,1.547,1.547,0,0,0,.366.148,3.034,3.034,0,0,0,.441.093V0H66.37V-.677q.241-.019.469-.046a1.8,1.8,0,0,0,.4-.093.7.7,0,0,0,.4-.32,1.218,1.218,0,0,0,.107-.552V-12.033a1.643,1.643,0,0,0-.139-.631,1.079,1.079,0,0,0-.39-.5,1.559,1.559,0,0,0-.538-.19,5.023,5.023,0,0,0-.631-.088v-.677l4.611-.241.139.148V-7.83h.037l.635-.571a5.214,5.214,0,0,1,.691-.515,3.339,3.339,0,0,1,.9-.38,4.324,4.324,0,0,1,1.192-.158,2.844,2.844,0,0,1,2.259.863,3.324,3.324,0,0,1,.756,2.273v4.546a1.234,1.234,0,0,0,.1.547.721.721,0,0,0,.38.325,2.6,2.6,0,0,0,.371.13,3.671,3.671,0,0,0,.5.093Zm6.717,0H79.479V-.677q.241-.019.473-.046a1.648,1.648,0,0,0,.4-.093.769.769,0,0,0,.417-.32,1.1,1.1,0,0,0,.121-.552v-5.4a1.082,1.082,0,0,0-.148-.571,1.228,1.228,0,0,0-.371-.394,1.971,1.971,0,0,0-.506-.213,3.3,3.3,0,0,0-.617-.13v-.677l4.546-.241.139.139v7.366a1.038,1.038,0,0,0,.139.552.843.843,0,0,0,.4.339,3.132,3.132,0,0,0,.408.148,2.8,2.8,0,0,0,.464.093ZM83.988-12.654a1.569,1.569,0,0,1-.543,1.2,1.841,1.841,0,0,1-1.285.5,1.852,1.852,0,0,1-1.294-.5,1.569,1.569,0,0,1-.543-1.2,1.583,1.583,0,0,1,.543-1.206,1.843,1.843,0,0,1,1.294-.5,1.826,1.826,0,0,1,1.29.5A1.589,1.589,0,0,1,83.988-12.654Zm6.5,12.97A5.937,5.937,0,0,1,88.733.051,5.756,5.756,0,0,1,87.4-.51l-.278.631H86.4l-.121-3.46h.677a4.6,4.6,0,0,0,.464.942,5.191,5.191,0,0,0,.742.942,4.2,4.2,0,0,0,1,.705,2.6,2.6,0,0,0,1.2.288,2,2,0,0,0,1.257-.329,1.221,1.221,0,0,0,.413-1.016.975.975,0,0,0-.186-.612,1.584,1.584,0,0,0-.51-.417,4.712,4.712,0,0,0-.793-.315q-.431-.13-1.062-.315A10.215,10.215,0,0,1,88.4-3.845a3.7,3.7,0,0,1-.932-.6,2.735,2.735,0,0,1-.668-.872,2.732,2.732,0,0,1-.25-1.215,2.506,2.506,0,0,1,1.1-2.115,4.752,4.752,0,0,1,2.881-.807,6.607,6.607,0,0,1,1.554.172,7.826,7.826,0,0,1,1.192.376l.195-.547h.705l.148,3.164h-.659a3.833,3.833,0,0,0-1.113-1.665,2.515,2.515,0,0,0-1.7-.7,1.875,1.875,0,0,0-1.123.3.963.963,0,0,0-.408.826,1.07,1.07,0,0,0,.6,1.021,8.011,8.011,0,0,0,1.675.594,5.463,5.463,0,0,1,2.431,1.164,2.489,2.489,0,0,1,.77,1.879A2.71,2.71,0,0,1,93.6-.52,5.314,5.314,0,0,1,90.491.315Zm12.348-.742a11.957,11.957,0,0,1-1.271.469A5.664,5.664,0,0,1,99.917.25a2.912,2.912,0,0,1-2.148-.705,2.735,2.735,0,0,1-.7-2.013v-5.7H95.4v-1h1.707v-2.811h3.015v2.811h2.6v1H100.14V-3.08a2.913,2.913,0,0,0,.3,1.54,1.2,1.2,0,0,0,1.081.455q.25,0,.7-.037a4.18,4.18,0,0,0,.622-.083Zm10.122-7.682a4.255,4.255,0,0,1,1.048,1.531,5.078,5.078,0,0,1,.362,1.93,5.291,5.291,0,0,1-.357,1.944,4.251,4.251,0,0,1-1.044,1.563,4.994,4.994,0,0,1-1.749,1.067A6.749,6.749,0,0,1,108.9.3a6.409,6.409,0,0,1-2.083-.325A4.9,4.9,0,0,1,105.131-1a4.417,4.417,0,0,1-1.113-1.535,4.962,4.962,0,0,1-.408-2.046,5.165,5.165,0,0,1,.357-1.981,4.447,4.447,0,0,1,1.072-1.545,4.724,4.724,0,0,1,1.693-1.007,6.694,6.694,0,0,1,2.25-.357,6.713,6.713,0,0,1,2.287.357A4.948,4.948,0,0,1,112.961-8.108Zm-2.375,6.429a5.4,5.4,0,0,0,.3-1.262,13.425,13.425,0,0,0,.1-1.726,13.6,13.6,0,0,0-.093-1.484,5.48,5.48,0,0,0-.278-1.317A2.2,2.2,0,0,0,110-8.387a1.489,1.489,0,0,0-1-.334,1.5,1.5,0,0,0-1.053.362,2.358,2.358,0,0,0-.608.937,5.141,5.141,0,0,0-.269,1.239A14.232,14.232,0,0,0,107-4.7q0,1.011.065,1.675a5.236,5.236,0,0,0,.315,1.331,2.114,2.114,0,0,0,.612.909A1.522,1.522,0,0,0,109-.455a1.508,1.508,0,0,0,.956-.311A2.061,2.061,0,0,0,110.586-1.679Zm14.222-5.826a1.9,1.9,0,0,1-.436,1.239,1.413,1.413,0,0,1-1.15.533,1.886,1.886,0,0,1-1.146-.343,1.174,1.174,0,0,1-.469-1.011,2.14,2.14,0,0,1,.046-.506q.046-.181.083-.339a1.955,1.955,0,0,0-.9.3,2.96,2.96,0,0,0-.835.742V-1.8a1.246,1.246,0,0,0,.1.538.721.721,0,0,0,.343.334,2.4,2.4,0,0,0,.663.172q.459.07.663.079V0h-6.207V-.677q.232-.019.469-.051a2.266,2.266,0,0,0,.4-.088.682.682,0,0,0,.408-.315,1.2,1.2,0,0,0,.111-.557v-5.4a1.146,1.146,0,0,0-.158-.6,1.363,1.363,0,0,0-.38-.422A1.532,1.532,0,0,0,116-8.294a2.974,2.974,0,0,0-.561-.1v-.677l4.425-.241.139.139V-7.83h.037A5.468,5.468,0,0,1,121.4-8.994a2.918,2.918,0,0,1,1.5-.422,1.857,1.857,0,0,1,1.387.533A1.882,1.882,0,0,1,124.808-7.505Zm11.124-1.021a2.112,2.112,0,0,0-.812.315,1.864,1.864,0,0,0-.654.779q-.8,1.688-1.642,3.595T130.95.288a12.088,12.088,0,0,1-1.113,1.985,6.451,6.451,0,0,1-1.011,1.141,3.16,3.16,0,0,1-.881.538,2.447,2.447,0,0,1-.881.167,2.039,2.039,0,0,1-1.424-.492,1.465,1.465,0,0,1-.543-1.1,1.841,1.841,0,0,1,.06-.482,1.293,1.293,0,0,1,.255-.464,1.147,1.147,0,0,1,.459-.348,1.649,1.649,0,0,1,.7-.144,1.611,1.611,0,0,1,.993.362,5.833,5.833,0,0,1,.983,1,8.489,8.489,0,0,0,.756-.914,4.479,4.479,0,0,0,.663-1.248q-1.1-2.319-1.958-4.022t-1.911-3.8a1.754,1.754,0,0,0-.622-.691,2.01,2.01,0,0,0-.826-.3V-9.2h5.678v.677a2.739,2.739,0,0,0-.728.139q-.413.13-.413.334a.542.542,0,0,0,.028.162,2.665,2.665,0,0,0,.1.255q.315.649.9,1.8t1.35,2.7q.575-1.317.979-2.268t.784-1.869a1.474,1.474,0,0,0,.107-.366q.014-.135.014-.181a.364.364,0,0,0-.162-.292,1.693,1.693,0,0,0-.385-.218,2.811,2.811,0,0,0-.445-.139q-.213-.046-.353-.065V-9.2h3.832Z" transform="translate(389 434)"/>
    <g id="Gruppe_110" data-name="Gruppe 110" transform="translate(549.49 653.577) rotate(-50)">
      <path id="Pfad_1042" data-name="Pfad 1042" class="cls-3" d="M-117.273-.584C6.337,45.1,103.464-23.466,103.464-23.466" transform="translate(136.173 101.683) rotate(-163)"/>
    </g>
    <g id="Gruppe_10356" data-name="Gruppe 10356" transform="translate(578.597 732.137) rotate(-130)">
      <path id="Pfad_1042-2" data-name="Pfad 1042" class="cls-3" d="M-18.05,11.522C104.6-40.3,220.737,38.581,220.737,38.581" transform="translate(225.312 38.058) rotate(163)"/>
    </g>
    <g id="Gruppe_10353" data-name="Gruppe 10353" transform="translate(547.573 733.919) rotate(-115)">
      <path id="Pfad_1042-3" data-name="Pfad 1042" class="cls-3" d="M-66.334-61.806c1.19.448,195.391,27.5,195.391,27.5" transform="translate(136.173 101.683) rotate(-163)"/>
    </g>
    <g id="Gruppe_10351" data-name="Gruppe 10351" transform="translate(390.849 590.248) rotate(-50)">
      <path id="Pfad_1042-4" data-name="Pfad 1042" class="cls-3" d="M-270.313-47.984S-122.679-18.974,7.916-161.175" transform="translate(136.173 101.683) rotate(-163)"/>
    </g>
    <g id="Gruppe_10355" data-name="Gruppe 10355" transform="translate(568.469 743.065) rotate(-130)">
      <path id="Pfad_1042-5" data-name="Pfad 1042" class="cls-3" d="M4.357,7.52c-1.223.2,152.736-17.14,273.872,108.107" transform="translate(299.878 110.575) rotate(163)"/>
    </g>
    <path id="Pfad_1085" data-name="Pfad 1085" class="cls-4" d="M55.276-56a2.622,2.622,0,0,1,1.926.793,2.622,2.622,0,0,1,.793,1.926,2.622,2.622,0,0,1-.793,1.926L36.246-30.4V-.724a2.523,2.523,0,0,1-1.473,2.435,2.65,2.65,0,0,1-2.832-.17L22.88-4.8a2.789,2.789,0,0,1-1.133-2.265V-30.4L.793-51.356A2.622,2.622,0,0,1,0-53.281a2.622,2.622,0,0,1,.793-1.926A2.622,2.622,0,0,1,2.718-56Z" transform="translate(605.003 747.005)"/>
  </g>
</svg>
