<svg xmlns="http://www.w3.org/2000/svg" width="208" height="256"><defs><style>.cls-3{fill:#383838}</style><clipPath id="clip-path"><path fill="none" d="M0 0h160v171H0z"/></clipPath></defs><g id="Gruppe_137" data-name="Gruppe 137" transform="translate(-688 -3425)"><path id="Rechteck_314" data-name="Rechteck 314" transform="translate(688 3425)" d="M0 0h208v256H0z"/><g id="Wiederholungsraster_3" data-name="Wiederholungsraster 3" transform="translate(712 3499)" clip-path="url(#clip-path)"><g transform="translate(-408 -3362)"><path id="Rechteck_377" data-name="Rechteck 377" class="cls-3" transform="translate(408 3362)" d="M0 0h160v10H0z"/></g><g transform="translate(-408 -3332)"><path id="Rechteck_377-2" data-name="Rechteck 377" class="cls-3" transform="translate(408 3362)" d="M0 0h160v10H0z"/></g><g transform="translate(-408 -3302)"><path id="Rechteck_377-3" data-name="Rechteck 377" class="cls-3" transform="translate(408 3362)" d="M0 0h160v10H0z"/></g><g transform="translate(-408 -3272)"><path id="Rechteck_377-4" data-name="Rechteck 377" class="cls-3" transform="translate(408 3362)" d="M0 0h160v10H0z"/></g><g transform="translate(-408 -3242)"><path id="Rechteck_377-5" data-name="Rechteck 377" class="cls-3" transform="translate(408 3362)" d="M0 0h160v10H0z"/></g><g transform="translate(-408 -3212)"><path id="Rechteck_377-6" data-name="Rechteck 377" class="cls-3" transform="translate(408 3362)" d="M0 0h160v10H0z"/></g></g></g></svg>