<svg xmlns="http://www.w3.org/2000/svg" width="40.787" height="39.526"><path d="M38.264 7.991h2.523L40.774.017 32.8 0v2.523l3.678.006-4.926 4.926a12.491 12.491 0 0 0-13.489-1.476 12.465 12.465 0 1 0-6.863 23.54v4H7.7v2.523h3.5v3.48h2.523v-3.48h3.5v-2.519h-3.5v-4a12.366 12.366 0 0 0 4.332-1.264 12.47 12.47 0 0 0 15.277-19.02l4.926-4.926zM12.466 27.06a9.943 9.943 0 1 1 3.079-19.4q-.354.306-.689.64a12.48 12.48 0 0 0 0 17.629q.334.334.689.64a9.9 9.9 0 0 1-3.079.491zm9.943-9.943a9.94 9.94 0 0 1-4.346 8.214 9.953 9.953 0 0 1 0-16.427 9.94 9.94 0 0 1 4.346 8.213zm8.291 7.031a9.969 9.969 0 0 1-10.12 2.424 12.449 12.449 0 0 0 0-18.911A9.946 9.946 0 0 1 30.7 24.148z" fill="#fff"/></svg>