<svg xmlns="http://www.w3.org/2000/svg" width="56" height="56"><defs><style>.cls-2{fill:#ffffff}</style></defs><g id="Gruppe_123" data-name="Gruppe 123" transform="translate(-304 -6112)"><path id="Rechteck_382" data-name="Rechteck 382" transform="translate(304 6112)" fill="none" d="M0 0h56v56H0z"/><g id="Gruppe_122" data-name="Gruppe 122" transform="translate(186.09 1473)"><path id="Pfad_1039" data-name="Pfad 1039" class="cls-2" d="M57.045 5.425A3.359 3.359 0 0 0 53.464 8.5a3.613 3.613 0 0 0 7.146 0 3.348 3.348 0 0 0-3.565-3.075zm3.7 18.114l.238-6.694 4.36 8.327a.894.894 0 0 0 1.1.383.693.693 0 0 0 .453-.95s-3.071-8.283-3.948-9.826-2.234-2.479-5.565-2.479H56.7c-3.327 0-4.684.937-5.565 2.481s-3.94 9.826-3.94 9.826a.689.689 0 0 0 .442.95.876.876 0 0 0 1.094-.383l4.37-8.327.234 6.694-.688 16.829a1.29 1.29 0 0 0 1.3 1.289.645.645 0 0 0 .1.006 1.345 1.345 0 0 0 1.407-1.126l1.581-13.86 1.6 13.86a1.322 1.322 0 0 0 1.391 1.126.589.589 0 0 0 .1-.006 1.284 1.284 0 0 0 1.3-1.289l-.682-16.831z" transform="translate(87.958 4642.575)"/><path id="Pfad_1041" data-name="Pfad 1041" class="cls-2" d="M53.744 5.425a2.382 2.382 0 1 0 2.379 2.382 2.386 2.386 0 0 0-2.379-2.382zm2.469 14.021l.159-5.181 2.91 6.445a.563.563 0 0 0 1.036-.439s-2.049-6.411-2.634-7.605-1.491-1.92-3.714-1.92h-.457c-2.22 0-3.125.725-3.713 1.92s-2.629 7.605-2.629 7.605a.559.559 0 0 0 .295.735.55.55 0 0 0 .73-.3l2.916-6.445.156 5.181-.458 13.03a.94.94 0 0 0 .867 1 .372.372 0 0 0 .067 0 .943.943 0 0 0 .939-.871l1.055-10.727L54.806 32.6a.928.928 0 0 0 .928.871.34.34 0 0 0 .067 0 .936.936 0 0 0 .867-1l-.455-13.027z" transform="translate(74.784 4650.765)"/><g id="old-man-walking-with-a-crutch" transform="translate(154.299 4649.016)"><path id="Pfad_1040" data-name="Pfad 1040" class="cls-2" d="M36.75 21.7v14.011a.642.642 0 1 1-1.285 0V21.7a1.011 1.011 0 0 0-2.021 0 .645.645 0 0 1-1.29 0 2.286 2.286 0 0 1 1.38-2.1 21.39 21.39 0 0 1-3.025-7.324l-2.937 8.325-.016.011a26.825 26.825 0 0 1-.232 13.993 1.669 1.669 0 0 1-1.6 1.2 1.749 1.749 0 0 1-.474-.069 1.67 1.67 0 0 1-1.13-2.076 23.948 23.948 0 0 0 .261-11.972c-1.816-3.538-2.169-6.806-1.044-9.714 1.793-4.644 6.718-6.481 6.927-6.559a1.675 1.675 0 0 1 2.146 1 4.071 4.071 0 0 1 .074 1.085c0 .058.06 6.4 3.438 11.066a1.293 1.293 0 0 1 .045 1.437 2.27 2.27 0 0 1 .783 1.697zM38.3 3.277A3.281 3.281 0 1 1 35.027 0 3.283 3.283 0 0 1 38.3 3.277z" transform="translate(-22.692)"/></g></g></g></svg>