<svg xmlns="http://www.w3.org/2000/svg" width="56" height="56"><g data-name="Gruppe 123"><path data-name="Rechteck 382" fill="none" d="M0 0h56v56H0z"/><path data-name="Pfad 1080" d="M37.588 34.563a.884.884 0 0 1-.838-.838V18.9a.8.8 0 0 1 .258-.58.8.8 0 0 1 .58-.258h1.418a.8.8 0 0 1 .58.258.8.8 0 0 1 .258.58v14.825a.884.884 0 0 1-.838.838zm-12.375 0a.884.884 0 0 1-.838-.838V20.963a.8.8 0 0 1 .258-.58.8.8 0 0 1 .58-.258h1.418a.8.8 0 0 1 .58.258.8.8 0 0 1 .258.58v12.762a.884.884 0 0 1-.838.838zm6.187 0a.884.884 0 0 1-.838-.838v-8.637a.8.8 0 0 1 .258-.58.8.8 0 0 1 .58-.258h1.418a.8.8 0 0 1 .58.258.8.8 0 0 1 .258.58v8.637a.884.884 0 0 1-.838.838zm12.568 3.094A.993.993 0 0 1 45 38.688v1.031a.993.993 0 0 1-1.031 1.031H14.062a1.982 1.982 0 0 1-1.45-.612 1.982 1.982 0 0 1-.612-1.45V17.031a1 1 0 0 1 .29-.741 1 1 0 0 1 .741-.29h1.031a1 1 0 0 1 .741.29 1 1 0 0 1 .29.741v20.625zm-24.943-3.094a.8.8 0 0 1-.58-.258.8.8 0 0 1-.258-.58v-4.512a.8.8 0 0 1 .258-.58.8.8 0 0 1 .58-.258h1.418a.8.8 0 0 1 .58.258.8.8 0 0 1 .258.58v4.512a.8.8 0 0 1-.258.58.8.8 0 0 1-.58.258z" fill="#fff"/></g></svg>