<svg xmlns="http://www.w3.org/2000/svg" width="56" height="56"><defs><style>.cls-3{fill:#fff}</style></defs><g id="Gruppe_129" data-name="Gruppe 129" transform="translate(-408 -6112)" opacity="1"><path id="Rechteck_383" data-name="Rechteck 383" transform="translate(408 6112)" fill="none" d="M0 0h56v56H0z"/><g id="Gruppe_10350" data-name="Gruppe 10350" transform="translate(.143 -4.574)"><g id="Gruppe_10349" data-name="Gruppe 10349" transform="translate(428.329 6132.574)"><path id="Pfad_1082" data-name="Pfad 1082" class="cls-3" d="M16.089 3.345a1.208 1.208 0 0 1 .225.72 1.553 1.553 0 0 1-.18.743 1.377 1.377 0 0 1-.518.54 1.417 1.417 0 0 1-.743.2h-25.932a1.417 1.417 0 0 1-.743-.2 1.377 1.377 0 0 1-.518-.54 1.553 1.553 0 0 1-.18-.743 1.208 1.208 0 0 1 .225-.72L.692-16.825a1.393 1.393 0 0 1 1.215-.675 1.393 1.393 0 0 1 1.216.675zM-.974-3l-2.837-2.84zm2.881-11.709l-4.5 7.023 1.619 1.621L1.457-8.5h4.457z" transform="translate(12.5 17.5)"/><path id="Pfad_1081" data-name="Pfad 1081" class="cls-3" d="M6.941-3.326a.822.822 0 0 1 .153.49 1.056 1.056 0 0 1-.122.505.936.936 0 0 1-.352.367.964.964 0 0 1-.505.138H-11.52a.964.964 0 0 1-.505-.138.936.936 0 0 1-.352-.367 1.056 1.056 0 0 1-.122-.505.822.822 0 0 1 .153-.49l8.816-13.715a.947.947 0 0 1 .83-.459.947.947 0 0 1 .827.459zM-6.591-9.571zM-2.7-15.6l-3.062 4.776 1.1 1.1 1.653-1.653H.022z" transform="translate(26.907 19.689)"/></g><path id="Pfad_1083" data-name="Pfad 1083" class="cls-3" d="M13.746-9.32a.986.986 0 0 1 .724.3.986.986 0 0 1 .3.724V2.951a1.31 1.31 0 0 1-.4.959 1.31 1.31 0 0 1-.959.4h-24.548a1.31 1.31 0 0 1-.959-.4 1.31 1.31 0 0 1-.4-.959v-15.338a.986.986 0 0 1 .3-.724.986.986 0 0 1 .724-.3h1.7v-3.408a.663.663 0 0 1 .192-.49.664.664 0 0 1 .49-.192h.682a.664.664 0 0 1 .49.192.663.663 0 0 1 .192.49v3.408H-5v-3.408a.663.663 0 0 1 .192-.49.664.664 0 0 1 .49-.192h.682a.664.664 0 0 1 .49.192.663.663 0 0 1 .192.49v3.408h2.725v-3.068a.986.986 0 0 1 .3-.724.986.986 0 0 1 .724-.3h6.134a.986.986 0 0 1 .724.3.986.986 0 0 1 .3.724v7.159zM-7.046-.287v-1.7a.493.493 0 0 0-.154-.367.493.493 0 0 0-.358-.146h-1.7a.493.493 0 0 0-.362.149.493.493 0 0 0-.149.362v1.7a.493.493 0 0 0 .149.362.493.493 0 0 0 .362.149h1.7A.493.493 0 0 0-7.2.075a.493.493 0 0 0 .154-.362zm0-4.09v-1.7a.493.493 0 0 0-.154-.367.493.493 0 0 0-.362-.149h-1.7a.493.493 0 0 0-.362.149.493.493 0 0 0-.149.362v1.7a.493.493 0 0 0 .149.362.493.493 0 0 0 .362.149h1.7a.493.493 0 0 0 .362-.144.493.493 0 0 0 .154-.362zm0-4.09v-1.7a.493.493 0 0 0-.149-.362.493.493 0 0 0-.362-.149h-1.7a.493.493 0 0 0-.362.149.493.493 0 0 0-.149.362v1.7a.493.493 0 0 0 .149.362.493.493 0 0 0 .362.149h1.7a.493.493 0 0 0 .357-.149.493.493 0 0 0 .154-.363zm5.454 8.18v-1.7a.493.493 0 0 0-.149-.362A.493.493 0 0 0-2.1-2.5h-1.7a.493.493 0 0 0-.362.149.493.493 0 0 0-.149.362v1.7a.493.493 0 0 0 .141.364.493.493 0 0 0 .362.149h1.7a.493.493 0 0 0 .366-.149.493.493 0 0 0 .15-.362zm0-4.09v-1.7a.493.493 0 0 0-.149-.362.493.493 0 0 0-.359-.154h-1.7a.493.493 0 0 0-.362.149.493.493 0 0 0-.149.362v1.7a.493.493 0 0 0 .149.362.493.493 0 0 0 .362.149h1.7a.493.493 0 0 0 .362-.149.493.493 0 0 0 .146-.357zm0-4.09v-1.7a.493.493 0 0 0-.149-.362.493.493 0 0 0-.362-.149h-1.7a.493.493 0 0 0-.362.149.493.493 0 0 0-.149.362v1.7a.493.493 0 0 0 .149.362.493.493 0 0 0 .362.149h1.7a.493.493 0 0 0 .362-.149.493.493 0 0 0 .149-.363zm6.817 4.09v-1.7a.493.493 0 0 0-.149-.362.493.493 0 0 0-.362-.149h-1.7a.493.493 0 0 0-.362.149.493.493 0 0 0-.149.362v1.7a.493.493 0 0 0 .149.362.493.493 0 0 0 .362.149h1.7a.493.493 0 0 0 .362-.149.493.493 0 0 0 .149-.362zm0-4.09v-1.7a.493.493 0 0 0-.149-.362.493.493 0 0 0-.362-.149h-1.7a.493.493 0 0 0-.362.149.493.493 0 0 0-.149.362v1.7a.493.493 0 0 0 .149.362.493.493 0 0 0 .362.149h1.7a.493.493 0 0 0 .362-.149.493.493 0 0 0 .149-.363zm0-4.09v-1.7a.493.493 0 0 0-.149-.362.493.493 0 0 0-.362-.149h-1.7a.493.493 0 0 0-.362.149.493.493 0 0 0-.149.362v1.7a.493.493 0 0 0 .149.362.493.493 0 0 0 .362.149h1.7a.493.493 0 0 0 .362-.149.493.493 0 0 0 .149-.363zm6.817 12.27v-1.7a.493.493 0 0 0-.149-.362.493.493 0 0 0-.362-.149h-1.7a.493.493 0 0 0-.362.149.493.493 0 0 0-.149.362v1.7a.493.493 0 0 0 .149.362.493.493 0 0 0 .362.149h1.7a.493.493 0 0 0 .362-.149.493.493 0 0 0 .149-.362zm0-4.09v-1.7a.493.493 0 0 0-.149-.362.493.493 0 0 0-.362-.149h-1.7a.493.493 0 0 0-.362.149.493.493 0 0 0-.149.362v1.7a.493.493 0 0 0 .149.362.493.493 0 0 0 .362.149h1.7a.493.493 0 0 0 .362-.149.493.493 0 0 0 .149-.362z" transform="translate(421.643 6151.302)"/></g></g></svg>