<svg xmlns="http://www.w3.org/2000/svg" width="56" height="56"><defs><style>.cls-2{fill:#fff}.cls-3{fill:#ddd}.cls-4{opacity:.1}.cls-5{fill:#eee}.cls-6{fill:#eee}</style></defs><g id="Gruppe_138" data-name="Gruppe 138" transform="translate(-765 -5352)"><path id="Rechteck_383" data-name="Rechteck 383" transform="translate(765 5352)" fill="none" d="M0 0h56v56H0z"/><path id="Rechteck_188" data-name="Rechteck 188" class="cls-2" transform="translate(806.122 5376.954)" d="M0 0h2.624v5.073H0z"/><path id="Pfad_980" data-name="Pfad 980" class="cls-2" d="M47.131 124.589v16.29H23.57V123.56l1.983-1.219 1.867-1.148 7.96-4.893z" transform="translate(764.328 5259.121)"/><path id="Rechteck_189" data-name="Rechteck 189" class="cls-3" transform="translate(798.357 5391.924)" d="M0 0h5.248v8.047H0z"/><path id="Rechteck_190" data-name="Rechteck 190" class="cls-4" transform="translate(806.122 5377.22)" d="M0 0h2.624v.291H0z"/><path id="Rechteck_191" data-name="Rechteck 191" class="cls-5" transform="translate(805.655 5376.889)" d="M0 0h3.499v.583H0z"/><path id="Pfad_985" data-name="Pfad 985" class="cls-4" d="M14.054 96.09L0 106.3l.933 1.516 13.121-8.923 13.122 8.923.932-1.516z" transform="translate(785.653 5279.238)"/><path id="Pfad_986" data-name="Pfad 986" class="cls-5" d="M14.054 94.86L0 105.066l.933 1.516 13.121-8.922 13.122 8.922.932-1.516z" transform="translate(785.653 5279.365)"/><path id="Rechteck_218" data-name="Rechteck 218" class="cls-6" transform="translate(789.743 5391.451)" d="M0 0h5.393v4.34H0z"/><path id="Rechteck_222" data-name="Rechteck 222" class="cls-6" transform="translate(789.743 5384.65)" d="M0 0h5.393v4.34H0z"/><path id="Rechteck_219" data-name="Rechteck 219" class="cls-3" transform="rotate(180 404.815 2697.896)" d="M0 0h5.393v4.34H0z"/><path id="Rechteck_223" data-name="Rechteck 223" class="cls-3" transform="rotate(180 404.815 2694.495)" d="M0 0h5.393v4.34H0z"/><path id="Rechteck_220" data-name="Rechteck 220" class="cls-4" transform="translate(804.238 5391.451)" d="M0 0h5.393v1.059H0z"/><path id="Rechteck_224" data-name="Rechteck 224" class="cls-4" transform="translate(804.238 5384.862)" d="M0 0h5.393v1.059H0z"/><path id="Rechteck_221" data-name="Rechteck 221" class="cls-4" transform="translate(789.743 5391.451)" d="M0 0h5.393v1.059H0z"/><path id="Rechteck_225" data-name="Rechteck 225" class="cls-4" transform="translate(789.743 5384.862)" d="M0 0h5.393v1.059H0z"/><path id="Rechteck_52" data-name="Rechteck 52" transform="translate(776 5360)" fill="#bbb" d="M0 0h24.202v39.96H0z"/><path id="Rechteck_56" data-name="Rechteck 56" class="cls-2" transform="translate(779.106 5377.652)" d="M0 0h5.114v3.288H0z"/><path id="Rechteck_57" data-name="Rechteck 57" class="cls-2" transform="translate(779.106 5382.676)" d="M0 0h5.114v3.288H0z"/><path id="Rechteck_58" data-name="Rechteck 58" class="cls-2" transform="translate(779.106 5388)" d="M0 0h5.114v3.288H0z"/><path id="Rechteck_59" data-name="Rechteck 59" class="cls-2" transform="rotate(180 398.21 2690.47)" d="M0 0h5.114v3.288H0z"/><path id="Rechteck_60" data-name="Rechteck 60" class="cls-2" transform="rotate(180 398.21 2692.981)" d="M0 0h5.114v3.288H0z"/><path id="Rechteck_61" data-name="Rechteck 61" class="cls-2" transform="rotate(180 398.21 2695.644)" d="M0 0h5.114v3.288H0z"/><path id="Rechteck_65" data-name="Rechteck 65" class="cls-2" transform="translate(785.858 5391.882)" d="M0 0h4.13v8.078H0z"/><path id="Rechteck_66" data-name="Rechteck 66" class="cls-4" transform="translate(779.106 5377.754)" d="M0 0h5.114v1.005H0z"/><path id="Rechteck_67" data-name="Rechteck 67" class="cls-4" transform="translate(791.305 5377.754)" d="M0 0h5.114v1.005H0z"/><path id="Rechteck_68" data-name="Rechteck 68" class="cls-4" transform="translate(791.305 5382.807)" d="M0 0h5.114v1.005H0z"/><path id="Rechteck_69" data-name="Rechteck 69" class="cls-4" transform="translate(791.305 5388)" d="M0 0h5.114v1.005H0z"/><path id="Rechteck_70" data-name="Rechteck 70" class="cls-4" transform="translate(779.106 5382.807)" d="M0 0h5.114v1.005H0z"/><path id="Rechteck_71" data-name="Rechteck 71" class="cls-4" transform="translate(779.106 5388)" d="M0 0h5.114v1.005H0z"/><path id="Rechteck_206" data-name="Rechteck 206" class="cls-2" transform="translate(779.106 5362.425)" d="M0 0h5.114v3.288H0z"/><path id="Rechteck_207" data-name="Rechteck 207" class="cls-2" transform="translate(779.106 5367.318)" d="M0 0h5.114v3.288H0z"/><path id="Rechteck_208" data-name="Rechteck 208" class="cls-2" transform="translate(779.106 5372.342)" d="M0 0h5.114v3.288H0z"/><path id="Rechteck_209" data-name="Rechteck 209" class="cls-2" transform="rotate(180 398.21 2682.916)" d="M0 0h5.114v3.288H0z"/><path id="Rechteck_210" data-name="Rechteck 210" class="cls-2" transform="rotate(180 398.21 2685.303)" d="M0 0h5.114v3.288H0z"/><path id="Rechteck_211" data-name="Rechteck 211" class="cls-2" transform="rotate(180 398.21 2687.814)" d="M0 0h5.114v3.288H0z"/><path id="Rechteck_212" data-name="Rechteck 212" class="cls-4" transform="translate(779.106 5362.425)" d="M0 0h5.114v1.005H0z"/><path id="Rechteck_213" data-name="Rechteck 213" class="cls-4" transform="translate(791.305 5362.425)" d="M0 0h5.114v1.005H0z"/><path id="Rechteck_214" data-name="Rechteck 214" class="cls-4" transform="translate(791.305 5367.361)" d="M0 0h5.114v1.005H0z"/><path id="Rechteck_215" data-name="Rechteck 215" class="cls-4" transform="translate(791.305 5372.413)" d="M0 0h5.114v1.005H0z"/><path id="Rechteck_216" data-name="Rechteck 216" class="cls-4" transform="translate(779.106 5367.361)" d="M0 0h5.114v1.005H0z"/><path id="Rechteck_217" data-name="Rechteck 217" class="cls-4" transform="translate(779.106 5372.413)" d="M0 0h5.114v1.005H0z"/></g></svg>