<?xml version="1.0" encoding="UTF-8" standalone="no"?>
<!DOCTYPE svg PUBLIC "-//W3C//DTD SVG 1.1//EN" "http://www.w3.org/Graphics/SVG/1.1/DTD/svg11.dtd">
<svg width="100%" height="100%" viewBox="0 0 56 56" version="1.1" xmlns="http://www.w3.org/2000/svg" xmlns:xlink="http://www.w3.org/1999/xlink" xml:space="preserve" xmlns:serif="http://www.serif.com/" style="fill-rule:evenodd;clip-rule:evenodd;stroke-linejoin:round;stroke-miterlimit:1.41421;">
    <g transform="matrix(1.25779,0,0,1.25779,0.332496,13.6631)">
        <path d="M0,22.491L0.157,0L43.994,0.307L43.837,22.797L0,22.491Z" style="fill:white;fill-rule:nonzero;"/>
        <path d="M5.22,10.874C5.253,6.09 12.88,2.264 22.25,2.33C31.62,2.396 39.193,6.328 39.16,11.112C39.127,15.896 31.501,19.722 22.129,19.656C12.757,19.59 5.186,15.658 5.219,10.874L5.22,10.874Z" style="fill-opacity:0.1;fill-rule:nonzero;"/>
        <path d="M22.213,15.105C22.805,15.134 23.368,14.836 23.676,14.33C23.82,14.066 23.893,13.769 23.887,13.469C23.913,13.005 23.697,12.559 23.317,12.291C22.977,12.083 22.606,11.932 22.217,11.845L22.213,15.105ZM20.113,9.124C20.095,9.489 20.244,9.843 20.519,10.085C20.836,10.337 21.213,10.504 21.613,10.568L21.613,7.656C21.171,7.633 20.743,7.818 20.457,8.156C20.239,8.433 20.118,8.773 20.112,9.125L20.113,9.124ZM18.996,9.199C18.998,8.565 19.246,7.955 19.687,7.499C20.192,6.977 20.898,6.697 21.624,6.731L21.624,5.907L22.213,5.907L22.213,6.719C22.911,6.727 23.583,6.986 24.106,7.447C24.556,7.897 24.806,8.511 24.797,9.147L23.713,9.147C23.692,8.858 23.603,8.579 23.454,8.331C23.184,7.908 22.71,7.658 22.208,7.674L22.208,10.686C22.893,10.842 23.552,11.096 24.165,11.439C24.724,11.829 25.041,12.482 25.002,13.162C25.09,14.079 24.68,14.975 23.929,15.508C23.402,15.805 22.815,15.978 22.212,16.016L22.212,17.216L21.624,17.216L21.624,16.016C20.64,16.056 19.706,15.569 19.176,14.739C18.917,14.214 18.795,13.632 18.823,13.048L19.923,13.048C19.924,13.475 20.014,13.897 20.189,14.287C20.492,14.781 21.034,15.081 21.614,15.074L21.614,11.697C20.889,11.603 20.205,11.309 19.637,10.848C19.196,10.417 18.962,9.815 18.996,9.199Z" style="fill:rgb(170,170,170);fill-rule:nonzero;"/>
    </g>
</svg>
