<?xml version="1.0" encoding="UTF-8" standalone="no"?>
<!DOCTYPE svg PUBLIC "-//W3C//DTD SVG 1.1//EN" "http://www.w3.org/Graphics/SVG/1.1/DTD/svg11.dtd">
<svg width="100%" height="100%" viewBox="0 0 56 56" version="1.1" xmlns="http://www.w3.org/2000/svg" xmlns:xlink="http://www.w3.org/1999/xlink" xml:space="preserve" xmlns:serif="http://www.serif.com/" style="fill-rule:evenodd;clip-rule:evenodd;stroke-linejoin:round;stroke-miterlimit:1.41421;">
    <g id="Gruppe_136" transform="matrix(0.218117,0,0,0.218117,-215.63,-1075.63)">
        <g id="Rechteck_398" transform="matrix(1,0,0,1,1234.89,5024.07)">
            <rect x="0" y="0" width="3.37" height="15.206" style="fill-opacity:0.1;fill-rule:nonzero;"/>
        </g>
        <g id="Pfad_1056" transform="matrix(1,0,0,1,324.199,4625.65)">
            <path d="M897.22,458.265C897.22,458.265 907.326,466.781 914.062,459.95L913.22,431.317L908.169,428.79L897.22,458.265Z" style="fill-opacity:0.1;fill-rule:nonzero;"/>
        </g>
        <g id="Ellipse_3" transform="matrix(1,0,0,1,1106.84,5018.18)">
            <ellipse cx="8.397" cy="5.451" rx="8.397" ry="5.451" style="fill-opacity:0.1;"/>
        </g>
        <g id="Rechteck_400" transform="matrix(1,0,0,1,1121.11,5024.03)">
            <rect x="0" y="0" width="117.058" height="2.527" style="fill-opacity:0.1;fill-rule:nonzero;"/>
        </g>
        <g id="Ellipse_5" transform="matrix(1,0,0,1,1230.68,5037.6)">
            <circle cx="5.051" cy="5.051" r="5.051" style="fill-opacity:0.1;"/>
        </g>
        <g id="Pfad_1061" transform="matrix(1,0,0,1,305.031,4644.81)">
            <path d="M924.81,411.306C924.81,411.306 926.495,413.925 932.389,412.148L931.547,401.2L929.02,401.2L924.81,411.306Z" style="fill-opacity:0.1;fill-rule:nonzero;"/>
        </g>
        <g id="Pfad_1058" transform="matrix(1,0,0,1,982.27,4872.93)">
            <path d="M10.88,155.357L10.88,161.251L138.043,209.251L252.573,157.883L251.734,152.829L137.2,203.359L10.88,155.357Z" style="fill-opacity:0.07;fill-rule:nonzero;"/>
        </g>
        <g id="Pfad_1051" transform="matrix(1,0,0,1,851.379,4765.85)">
            <path d="M392.731,276.342C392.731,274.491 391.74,272.775 390.137,271.85L390.137,257.269L390.042,257.269L390.042,257.217L378.842,257.217L261.243,227L138.45,261.594L138.45,267.646L197.22,289.829L193.795,348.929C225.062,357.829 249.675,361.061 269.007,360.912L270.026,360.912C326.876,360.143 337.434,329.917 337.434,329.917C334.354,313.896 334.785,296.117 335.297,287.226L386.639,264.2L385.91,259.829L386.685,259.829L386.685,271.229C384.197,271.648 382.358,273.823 382.358,276.346C382.358,278.342 383.51,280.169 385.312,281.029L381.5,290.18C381.899,290.686 382.436,291.065 383.047,291.27L372.853,318.718C373.947,319.595 375.118,320.369 376.353,321.032L377.998,322.132L378.038,321.86C380.822,323.081 384.329,323.85 387.5,322.348L388.361,322.131L388.224,321.96C388.925,321.536 389.568,321.023 390.138,320.434L389.274,291.034L388.535,281.426C390.959,280.953 392.727,278.812 392.731,276.342Z" style="fill:url(#_Linear1);fill-rule:nonzero;"/>
        </g>
        <g id="Pfad_1052" transform="matrix(1,0,0,1,721.114,4654.51)">
            <path d="M465.73,440.306C465.73,440.306 447.2,493.363 325.94,458.833L329.316,400.725L422.792,387.25L464.058,393.144C464.058,393.144 461.518,418.41 465.73,440.306Z" style="fill:white;fill-rule:nonzero;"/>
        </g>
        <g id="Pfad_1053" transform="matrix(1,0,0,1,851.915,4809.67)">
            <path d="M198.5,245.565L198.5,250.616L268.4,275.04L329.877,248.935L330.719,243.881L268.4,266.619L198.5,245.565Z" style="fill-opacity:0.15;fill-rule:nonzero;"/>
        </g>
        <g id="Pfad_1054" transform="matrix(1,0,0,1,560.16,4654.5)">
            <path d="M625.093,393.154L583.827,387.26L582.475,387.46L622.375,393.16C622.375,393.16 619.848,418.423 624.06,440.319C624.06,440.319 613.682,470.044 557.599,470.519C616.058,471.004 626.774,440.319 626.774,440.319C622.566,418.417 625.093,393.154 625.093,393.154Z" style="fill-opacity:0.15;fill-rule:nonzero;"/>
        </g>
        <g id="Rechteck_397" transform="matrix(1,0,0,1,1234.89,5024.07)">
            <rect x="0" y="0" width="3.37" height="15.206" style="fill:rgb(204,204,204);fill-rule:nonzero;"/>
        </g>
        <g id="Pfad_1055" transform="matrix(1,0,0,1,324.199,4625.65)">
            <path d="M897.22,458.265C897.22,458.265 907.326,466.781 914.062,459.95L913.22,431.317L908.169,428.79L897.22,458.265Z" style="fill:rgb(204,204,204);fill-rule:nonzero;"/>
        </g>
        <g id="Pfad_1057" transform="matrix(1,0,0,1,982.27,4872.93)">
            <path d="M10.88,155.357L10.88,161.251L138.043,209.251L252.573,157.883L251.734,152.829L137.2,203.359L10.88,155.357Z" style="fill:rgb(204,204,204);fill-rule:nonzero;"/>
        </g>
        <g id="Pfad_1059" transform="matrix(1,0,0,1,982.27,4943.86)">
            <path d="M10.88,84.427L137.811,133.65L251.735,81.9L130.465,50.74L10.88,84.427Z" style="fill:white;fill-rule:nonzero;"/>
        </g>
        <g id="Ellipse_2" transform="matrix(1,0,0,1,1106.84,5018.18)">
            <ellipse cx="8.397" cy="5.451" rx="8.397" ry="5.451" style="fill:rgb(204,204,204);"/>
        </g>
        <g id="Rechteck_399" transform="matrix(1,0,0,1,1121.11,5024.03)">
            <rect x="0" y="0" width="117.058" height="2.527" style="fill:rgb(204,204,204);fill-rule:nonzero;"/>
        </g>
        <g id="Ellipse_4" transform="matrix(1,0,0,1,1230.68,5037.6)">
            <circle cx="5.051" cy="5.051" r="5.051" style="fill:rgb(204,204,204);"/>
        </g>
        <g id="Pfad_1060" transform="matrix(1,0,0,1,305.031,4644.81)">
            <path d="M924.81,411.306C924.81,411.306 926.495,413.925 932.389,412.148L931.547,401.2L929.02,401.2L924.81,411.306Z" style="fill:rgb(204,204,204);fill-rule:nonzero;"/>
        </g>
        <g id="Pfad_1062" transform="matrix(1,0,0,1,457.008,4746.41)">
            <path d="M766.89,339.142L770.257,334.93L769.415,340.83L766.89,339.142Z" style="fill:white;fill-opacity:0.2;fill-rule:nonzero;"/>
        </g>
        <g id="Pfad_1063" transform="matrix(1,0,0,1,435.922,4742.57)">
            <path d="M797.24,340.45L797.24,345.5L800.607,344.658L797.24,340.45Z" style="fill:white;fill-opacity:0.2;fill-rule:nonzero;"/>
        </g>
    </g>
    <defs>
        <linearGradient id="_Linear1" x1="0" y1="0" x2="1" y2="0" gradientUnits="userSpaceOnUse" gradientTransform="matrix(8.20005e-15,-133.917,133.917,8.20005e-15,265.591,360.917)"><stop offset="0" style="stop-color:rgb(128,128,128);stop-opacity:0.25098"/><stop offset="0.54" style="stop-color:rgb(128,128,128);stop-opacity:0.121569"/><stop offset="1" style="stop-color:rgb(128,128,128);stop-opacity:0.101961"/></linearGradient>
    </defs>
</svg>
