<svg id="Gruppe_68" data-name="Gruppe 68" xmlns="http://www.w3.org/2000/svg" width="152.961" height="127.223"><defs><style>.cls-2{fill:#9eb3eb}.cls-7{opacity:.1}.cls-4{fill:#e0e0e0}.cls-5{fill:#28324f}.cls-6{fill:#445a9a}.cls-11{fill:#5d291b}</style></defs><g id="Gruppe_67" data-name="Gruppe 67" transform="translate(102.748)" opacity=".2"><path id="Pfad_8" data-name="Pfad 8" class="cls-2" d="M426.158 400.594a35.634 35.634 0 0 0-6.628-21.165 19.862 19.862 0 1 0-35.791 0 37.108 37.108 0 0 0 0 42.331 19.862 19.862 0 1 0 35.791 0 35.664 35.664 0 0 0 6.628-21.166z" transform="translate(-377.11 -350.95)"/><path id="Pfad_9" data-name="Pfad 9" d="M426.158 400.594a35.634 35.634 0 0 0-6.628-21.165 19.862 19.862 0 1 0-35.791 0 37.108 37.108 0 0 0 0 42.331 19.862 19.862 0 1 0 35.791 0 35.664 35.664 0 0 0 6.628-21.166z" transform="translate(-377.11 -350.95)" opacity=".1" fill="#9eb3eb"/><path id="Pfad_10" data-name="Pfad 10" class="cls-2" d="M428.8 400.594a35.634 35.634 0 0 0-6.628-21.165 19.862 19.862 0 1 0-35.791 0 37.108 37.108 0 0 0 0 42.331 19.862 19.862 0 1 0 35.791 0 35.755 35.755 0 0 0 6.628-21.166z" transform="translate(-378.583 -350.95)"/><path id="Pfad_11" data-name="Pfad 11" class="cls-2" d="M290.035 278.226h-4.675l2.34-77.106z" transform="translate(-262.016 -153.23)"/><path id="Pfad_12" data-name="Pfad 12" class="cls-2" d="M291.97 236.62l15.187-6.42-15.187 8.179z" transform="translate(-265.705 -169.461)"/><path id="Pfad_13" data-name="Pfad 13" class="cls-2" d="M283.213 253.968l-4.463-5.258 4.375 8.179z" transform="translate(-258.327 -179.792)"/></g><path id="Rechteck_188" data-name="Rechteck 188" class="cls-4" transform="translate(94.971 7.971)" d="M0 0h12.173v23.538H0z"/><path id="Pfad_980" data-name="Pfad 980" class="cls-5" d="M132.884 149.984v80.358H23.57v-80.358l9.2-5.656L41.43 139l36.931-22.7z" transform="translate(-13.155 -105.89)"/><path id="Rechteck_189" data-name="Rechteck 189" class="cls-6" transform="translate(53.393 86.982)" d="M0 0h24.351v37.338H0z"/><path id="Rechteck_190" data-name="Rechteck 190" class="cls-7" transform="translate(94.971 8.245)" d="M0 0h12.173v1.352H0z"/><path id="Rechteck_191" data-name="Rechteck 191" class="cls-4" transform="translate(92.806 6.619)" d="M0 0h16.234v2.704H0z"/><path id="Pfad_985" data-name="Pfad 985" class="cls-7" d="M65.207 96.09L0 143.441l4.33 7.035 60.876-41.4 60.881 41.4 4.326-7.035z" transform="translate(0 -94.61)"/><path id="Pfad_986" data-name="Pfad 986" d="M65.207 94.86L0 142.211l4.33 7.035 60.876-41.394 60.881 41.394 4.326-7.035z" transform="translate(0 -93.923)" fill="#2a3b6e"/><path id="Linie_44" data-name="Linie 44" stroke-miterlimit="10" fill="none" stroke="#535461" stroke-width="2" d="M110.529 77.645v22.73"/><path id="Rechteck_218" data-name="Rechteck 218" class="cls-6" transform="translate(19.13 84.786)" d="M0 0h25.023v20.137H0z"/><path id="Rechteck_222" data-name="Rechteck 222" class="cls-6" transform="translate(19.13 47.506)" d="M0 0h25.023v20.137H0z"/><path id="Rechteck_219" data-name="Rechteck 219" class="cls-6" transform="rotate(180 55.627 52.461)" d="M0 0h25.023v20.137H0z"/><path id="Rechteck_223" data-name="Rechteck 223" class="cls-6" transform="rotate(180 55.627 33.822)" d="M0 0h25.023v20.137H0z"/><path id="Rechteck_220" data-name="Rechteck 220" class="cls-7" transform="translate(86.232 84.786)" d="M0 0h25.023v4.915H0z"/><path id="Rechteck_224" data-name="Rechteck 224" class="cls-7" transform="translate(86.232 47.506)" d="M0 0h25.023v4.915H0z"/><path id="Rechteck_221" data-name="Rechteck 221" class="cls-7" transform="translate(19.13 84.786)" d="M0 0h25.023v4.915H0z"/><path id="Rechteck_225" data-name="Rechteck 225" class="cls-7" transform="translate(19.13 47.506)" d="M0 0h25.023v4.915H0z"/><path id="Pfad_993" data-name="Pfad 993" class="cls-2" d="M405.787 524.565a16.482 16.482 0 0 0-3.093-9.805 9.2 9.2 0 1 0-16.579 0 17.166 17.166 0 0 0 0 19.61 9.2 9.2 0 1 0 16.579 0 16.482 16.482 0 0 0 3.093-9.805z" transform="translate(-277.672 -435.016)"/><path id="Pfad_996" data-name="Pfad 996" class="cls-5" d="M265.161 329.276H263l1.083-35.716z" transform="translate(-146.788 -204.824)"/><path id="Pfad_997" data-name="Pfad 997" class="cls-11" d="M266.06 310.014l7.035-2.974-7.035 3.787z" transform="translate(-148.496 -212.348)"/><path id="Pfad_998" data-name="Pfad 998" class="cls-11" d="M262 318.045l-2.064-2.435 2.024 3.787z" transform="translate(-145.08 -217.131)"/><path id="Pfad_999" data-name="Pfad 999" d="M186.4 608.505v-.376a4.861 4.861 0 0 0-7.339-4.193 4.861 4.861 0 0 0-8.214-.583 7.143 7.143 0 1 0 1.887 14.091 4.86 4.86 0 0 0 5.276-.8 4.834 4.834 0 0 0 4.861.963 4.866 4.866 0 1 0 3.5-9.08z" transform="translate(-155.982 -490.712)" fill="#ebeffa"/></svg>