<svg xmlns="http://www.w3.org/2000/svg" width="24" height="32"><defs><style>.cls-1{fill:#fff}</style></defs><g id="man-user"><path id="Pfad_1022" data-name="Pfad 1022" class="cls-1" d="M110.522 16.431c3.306 0 5.987-3.678 5.987-8.215S115.629 0 110.522 0s-5.987 3.678-5.987 8.215 2.681 8.216 5.987 8.216z" transform="translate(-98.522)"/><path id="Pfad_1023" data-name="Pfad 1023" class="cls-1" d="M41.9 300.514c0-.277 0-.078 0 0z" transform="translate(-41.895 -273.136)"/><path id="Pfad_1024" data-name="Pfad 1024" class="cls-1" d="M308.085 301.737c0-.076 0-.525 0 0z" transform="translate(-284.087 -274.143)"/><path id="Pfad_1025" data-name="Pfad 1025" class="cls-1" d="M65.891 189.322c-.118-7.9-1.087-10.156-8.506-11.582a4.979 4.979 0 0 1-6.957 0c-7.338 1.41-8.367 3.629-8.5 11.325-.011.628-.016.661-.018.589v.83s1.766 3.791 12 3.791 12-3.791 12-3.791v-.614a5.42 5.42 0 0 1-.019-.548z" transform="translate(-41.907 -162.275)"/></g></svg>