<svg xmlns="http://www.w3.org/2000/svg" width="208" height="256"><defs><style>.cls-4{fill:#b63530}</style><clipPath id="clip-path"><path fill="none" d="M0 0h160v171H0z"/></clipPath></defs><g id="Gruppe_136" data-name="Gruppe 136" transform="translate(-384 -3425)"><path id="Rechteck_35" data-name="Rechteck 35" transform="translate(384 3425)" fill="#d5433d" d="M0 0h208v256H0z"/><g id="Wiederholungsraster_2" data-name="Wiederholungsraster 2" transform="translate(408 3499)" clip-path="url(#clip-path)"><g transform="translate(-408 -3362)"><path id="Rechteck_377" data-name="Rechteck 377" class="cls-4" transform="translate(408 3362)" d="M0 0h160v10H0z"/></g><g transform="translate(-408 -3332)"><path id="Rechteck_377-2" data-name="Rechteck 377" class="cls-4" transform="translate(408 3362)" d="M0 0h160v10H0z"/></g><g transform="translate(-408 -3302)"><path id="Rechteck_377-3" data-name="Rechteck 377" class="cls-4" transform="translate(408 3362)" d="M0 0h160v10H0z"/></g><g transform="translate(-408 -3272)"><path id="Rechteck_377-4" data-name="Rechteck 377" class="cls-4" transform="translate(408 3362)" d="M0 0h160v10H0z"/></g><g transform="translate(-408 -3242)"><path id="Rechteck_377-5" data-name="Rechteck 377" class="cls-4" transform="translate(408 3362)" d="M0 0h160v10H0z"/></g><g transform="translate(-408 -3212)"><path id="Rechteck_377-6" data-name="Rechteck 377" class="cls-4" transform="translate(408 3362)" d="M0 0h160v10H0z"/></g></g></g></svg>